<svg width="16" height="16" viewBox="0 0 16 16" fill="none" xmlns="http://www.w3.org/2000/svg">
    <path d="M7.99967 1.30005C4.31967 1.30005 1.33301 4.28672 1.33301 7.96672C1.33301 11.6467 4.31967 14.6334 7.99967 14.6334H11.333V13.3H7.99967C5.10634 13.3 2.66634 10.86 2.66634 7.96672C2.66634 5.07338 5.10634 2.63338 7.99967 2.63338C10.893 2.63338 13.333 5.07338 13.333 7.96672V8.92005C13.333 9.44672 12.8597 9.96671 12.333 9.96671C11.8063 9.96671 11.333 9.44672 11.333 8.92005V7.96672C11.333 6.12672 9.83967 4.63338 7.99967 4.63338C6.15967 4.63338 4.66634 6.12672 4.66634 7.96672C4.66634 9.80671 6.15967 11.3 7.99967 11.3C8.91967 11.3 9.75967 10.9267 10.3597 10.32C10.793 10.9134 11.5397 11.3 12.333 11.3C13.6463 11.3 14.6663 10.2334 14.6663 8.92005V7.96672C14.6663 4.28672 11.6797 1.30005 7.99967 1.30005V1.30005ZM7.99967 9.96671C6.89301 9.96671 5.99967 9.07338 5.99967 7.96672C5.99967 6.86005 6.89301 5.96672 7.99967 5.96672C9.10634 5.96672 9.99967 6.86005 9.99967 7.96672C9.99967 9.07338 9.10634 9.96671 7.99967 9.96671Z" fill="#62768F"/>
</svg>