<svg width="16" height="16" viewBox="0 0 16 16" fill="none" xmlns="http://www.w3.org/2000/svg">
    <path d="M8.00033 4.00008C8.73366 4.00008 9.33366 4.60008 9.33366 5.33341C9.33366 6.06675 8.73366 6.66675 8.00033 6.66675C7.26699 6.66675 6.66699 6.06675 6.66699 5.33341C6.66699 4.60008 7.26699 4.00008 8.00033 4.00008ZM8.00033 10.0001C9.80033 10.0001 11.867 10.8601 12.0003 11.3334V12.0001H4.00033V11.3401C4.13366 10.8601 6.20033 10.0001 8.00033 10.0001V10.0001ZM8.00033 2.66675C6.52699 2.66675 5.33366 3.86008 5.33366 5.33341C5.33366 6.80675 6.52699 8.00008 8.00033 8.00008C9.47366 8.00008 10.667 6.80675 10.667 5.33341C10.667 3.86008 9.47366 2.66675 8.00033 2.66675V2.66675ZM8.00033 8.66675C6.22033 8.66675 2.66699 9.56008 2.66699 11.3334V13.3334H13.3337V11.3334C13.3337 9.56008 9.78033 8.66675 8.00033 8.66675V8.66675Z" fill="#62768F"/>
</svg>