<svg width="16" height="16" viewBox="0 0 16 16" fill="none" xmlns="http://www.w3.org/2000/svg">
    <path d="M15.8067 11.1133C13.7733 9.18659 11.0267 7.99992 8 7.99992C4.97333 7.99992 2.22667 9.18659 0.193333 11.1133C0.0733333 11.2333 0 11.3999 0 11.5866C0 11.7733 0.0733333 11.9399 0.193333 12.0599L1.84667 13.7133C1.96667 13.8333 2.13333 13.9066 2.32 13.9066C2.5 13.9066 2.66667 13.8333 2.78667 13.7199C3.31333 13.2266 3.91333 12.8133 4.56 12.4866C4.78 12.3799 4.93333 12.1533 4.93333 11.8866V9.81992C5.9 9.49992 6.93333 9.33325 8 9.33325C9.06667 9.33325 10.1 9.49992 11.0667 9.81325V11.8799C11.0667 12.1399 11.22 12.3733 11.44 12.4799C12.0933 12.8066 12.6867 13.2266 13.2133 13.7133C13.3333 13.8333 13.5 13.8999 13.68 13.8999C13.8667 13.8999 14.0333 13.8266 14.1533 13.7066L15.8067 12.0533C15.9267 11.9333 16 11.7666 16 11.5799C16 11.3999 15.9267 11.2333 15.8067 11.1133V11.1133ZM3.6 11.4866C3.16 11.7333 2.74 12.0199 2.35333 12.3333L1.64 11.6199C2.24667 11.1199 2.90667 10.6933 3.60667 10.3533V11.4866H3.6ZM13.6467 12.3266C13.2533 12.0066 12.84 11.7266 12.4 11.4799V10.3466C13.0933 10.6866 13.7533 11.1133 14.36 11.6133L13.6467 12.3266ZM14.1067 4.17325L13.1667 3.23325L10.7933 5.59992L11.7333 6.53992C11.7333 6.53992 14.0333 4.19325 14.1067 4.17325V4.17325ZM7.33333 1.33325H8.66667V4.66659H7.33333V1.33325ZM4.26667 6.53992L5.20667 5.59992L2.84 3.22659L1.89333 4.17325C1.96667 4.19325 4.26667 6.53992 4.26667 6.53992V6.53992Z" fill="#62768F"/>
</svg>