<svg width="750" height="650" viewBox="0 0 750 650" fill="none" xmlns="http://www.w3.org/2000/svg">
<path d="M551.672 227.201L543.913 235.4C542.694 227.945 539.551 220.937 534.793 215.07C527.553 205.74 529.183 201.04 532.903 196.52C536.623 191.99 537.203 194.03 538.023 197.83C538.853 201.63 540.493 206.57 542.193 207.65C543.883 208.73 544.383 204.84 546.843 203.8C549.293 202.76 549.693 204.37 548.853 205.16C547.067 206.983 545.453 208.969 544.033 211.09C542.543 213.4 542.283 213.87 545.063 218.14C547.071 221.297 549.279 224.323 551.672 227.201Z" fill="url(#paint0_linear)"/>
<path d="M506.884 560.392L528.822 332.065H535.116V329.065H526.097L503.87 560.392H506.884Z" fill="url(#paint1_linear)"/>
<path d="M564.792 560.392L535.029 332.065H601.014L640.991 560.392H644.037L603.751 330.306L603.533 329.065H531.613L561.767 560.392H564.792Z" fill="url(#paint2_linear)"/>
<path d="M610.129 384.145H541.819L541.429 381.145H609.599L610.129 384.145Z" fill="url(#paint3_linear)"/>
<path d="M615.229 413.275H545.609L545.219 410.275H614.699L615.229 413.275Z" fill="url(#paint4_linear)"/>
<path d="M620.349 442.515H549.429L549.029 439.515H619.819L620.349 442.515Z" fill="url(#paint5_linear)"/>
<path d="M625.449 471.645H553.219L552.829 468.645H624.919L625.449 471.645Z" fill="url(#paint6_linear)"/>
<path d="M605.009 354.935H537.839L537.449 351.935H604.489L605.009 354.935Z" fill="url(#paint7_linear)"/>
<path d="M630.569 500.895H557.029L556.639 497.895H630.049L630.569 500.895Z" fill="url(#paint8_linear)"/>
<path d="M635.669 530.025H560.829L560.439 527.025H635.149L635.669 530.025Z" fill="url(#paint9_linear)"/>
<path d="M575.862 224.938C575.862 224.938 579.19 229.082 572.122 233.15C565.054 237.218 563.141 236.429 558.023 231.148C552.905 225.867 552.11 224.419 552.11 224.419L533.161 244.488C533.161 244.488 535.502 252.21 542.821 254.329C550.14 256.448 552.345 257.673 555.183 260.523C558.021 263.373 565.041 269.005 577.016 266.716C595.352 263.211 594.685 231.371 581.998 218.216L597.359 209.292" fill="url(#paint10_linear)"/>
<path d="M544.341 89L375.582 177.251L554.663 279.435L544.341 89Z" fill="#E94A47"/>
<path d="M105 519.105C143.074 566.478 212.343 574.017 259.716 535.943C301.039 502.731 312.809 444.778 287.715 398.077L105 519.105Z" fill="#428DFC"/>
<path d="M433.668 400.318C480.745 400.318 518.908 362.155 518.908 315.078C518.908 268.001 480.745 229.838 433.668 229.838C386.591 229.838 348.428 268.001 348.428 315.078C348.428 362.155 386.591 400.318 433.668 400.318Z" fill="url(#paint11_linear)"/>
<path d="M513.616 400.332H353.721V560.227H513.616V400.332Z" fill="url(#paint12_linear)"/>
<path d="M589.68 361.627L596.676 381.143L547.285 381.145C547.285 381.145 549.818 376.26 558.26 372.642C566.702 369.024 574.582 361.627 574.582 361.627H589.68" fill="url(#paint13_linear)"/>
<path d="M606.015 389.621L613.422 410.283L561.131 410.285C561.131 410.285 563.812 405.113 572.75 401.283C581.688 397.453 590.031 389.622 590.031 389.622L606.015 389.621Z" fill="#428DFC"/>
<path d="M567.907 258.506C567.907 258.506 560.583 280.316 556.679 290.795C552.674 301.545 551.566 307.36 558.13 322.007C563.31 333.566 574.584 361.628 574.584 361.628H588.277C589.465 355.053 589.105 348.291 587.224 341.879C584.064 331.873 581.694 333.189 580.904 325.817C580.114 318.445 571.951 313.441 577.218 301.328C582.485 289.215 591.223 291.093 599.888 257.766L567.907 258.506Z" fill="url(#paint14_linear)"/>
<path d="M606.018 389.621H590.032C590.032 389.621 565.278 334.029 564.117 322.723C562.967 311.422 563.889 297.948 565.506 286.854C565.702 285.513 566.776 268.777 566.998 267.484C571.574 267.164 576.166 267.114 580.748 267.333C581.54 267.353 590.099 267.278 592.401 267.078C594.749 267.067 596.954 266.94 598.979 266.744C598.947 272.352 597.845 279.836 594.399 289.468C585.155 315.335 592.093 319.029 595.093 326.858C598.098 334.676 599.715 339.463 599.026 346.857C598.332 354.251 601.793 352.29 603.648 361.858C605.493 371.418 606.018 389.621 606.018 389.621Z" fill="url(#paint15_linear)"/>
<path opacity="0.86" d="M581.145 282.525C581.157 282.465 581.118 282.408 581.059 282.396C580.999 282.384 580.942 282.423 580.93 282.482C580.918 282.541 580.957 282.599 581.016 282.611C581.075 282.624 581.133 282.585 581.145 282.525ZM581.689 279.896C581.704 279.841 581.67 279.784 581.615 279.769C581.611 279.768 581.607 279.767 581.603 279.767C581.543 279.753 581.483 279.789 581.468 279.848C581.459 279.91 581.499 279.968 581.56 279.982C581.619 279.994 581.677 279.955 581.689 279.896ZM571.768 276.084C571.733 276.036 571.666 276.025 571.617 276.059C571.567 276.085 571.548 276.148 571.574 276.198C571.576 276.202 571.579 276.206 571.582 276.21C571.617 276.262 571.686 276.275 571.738 276.241C571.79 276.206 571.803 276.137 571.769 276.085C571.769 276.085 571.769 276.084 571.768 276.084ZM586.745 281.074C586.733 281.016 586.677 280.978 586.618 280.989C586.56 281.001 586.522 281.057 586.533 281.116C586.544 281.175 586.601 281.212 586.66 281.201C586.716 281.193 586.755 281.141 586.747 281.085C586.746 281.081 586.746 281.078 586.745 281.074ZM576.615 279.006C576.563 278.97 576.492 278.983 576.456 279.035C576.42 279.087 576.433 279.158 576.485 279.194C576.537 279.23 576.608 279.217 576.644 279.165C576.68 279.113 576.667 279.042 576.615 279.006ZM592.879 291.168C592.852 291.056 592.74 290.987 592.628 291.013C592.626 291.014 592.623 291.014 592.621 291.015C592.511 291.043 592.444 291.156 592.473 291.266C592.473 291.267 592.473 291.267 592.473 291.268C592.5 291.38 592.612 291.449 592.724 291.423C592.726 291.422 592.729 291.422 592.731 291.421C592.841 291.393 592.908 291.28 592.879 291.17C592.88 291.169 592.88 291.168 592.879 291.168ZM591.589 286.232C591.561 286.122 591.448 286.055 591.338 286.084C591.337 286.084 591.337 286.084 591.336 286.084C591.222 286.113 591.154 286.229 591.183 286.342C591.212 286.455 591.328 286.524 591.441 286.495C591.553 286.461 591.618 286.345 591.589 286.232ZM572.828 293.049C572.728 292.99 572.599 293.023 572.538 293.122C572.48 293.218 572.51 293.342 572.606 293.401C572.609 293.403 572.613 293.405 572.616 293.407C572.716 293.466 572.845 293.433 572.906 293.334C572.963 293.234 572.928 293.106 572.828 293.049ZM575.398 288.646C575.298 288.589 575.171 288.624 575.114 288.724C575.054 288.824 575.087 288.954 575.187 289.014C575.287 289.074 575.417 289.041 575.477 288.941C575.531 288.837 575.497 288.709 575.398 288.646ZM577.974 284.248C577.87 284.193 577.742 284.227 577.679 284.326C577.621 284.422 577.651 284.546 577.747 284.605C577.75 284.607 577.754 284.609 577.757 284.611C577.854 284.672 577.982 284.642 578.043 284.545C578.044 284.543 578.046 284.541 578.047 284.539C578.106 284.437 578.074 284.308 577.974 284.248ZM580.54 279.85C580.44 279.793 580.313 279.828 580.256 279.928C580.197 280.029 580.23 280.158 580.331 280.217C580.432 280.276 580.561 280.243 580.62 280.142C580.679 280.041 580.646 279.912 580.545 279.853C580.543 279.852 580.542 279.851 580.54 279.85ZM583.951 294.504C583.97 294.387 583.891 294.277 583.774 294.258C583.657 294.239 583.547 294.318 583.528 294.434C583.509 294.551 583.588 294.661 583.704 294.68C583.705 294.68 583.707 294.68 583.708 294.681C583.825 294.697 583.932 294.618 583.951 294.504ZM584.645 289.455C584.664 289.338 584.585 289.228 584.469 289.209C584.352 289.19 584.242 289.269 584.223 289.385C584.204 289.502 584.283 289.612 584.399 289.631C584.4 289.631 584.402 289.631 584.403 289.632C584.518 289.649 584.626 289.57 584.645 289.455ZM585.338 284.407C585.349 284.29 585.267 284.184 585.15 284.165C585.032 284.152 584.926 284.236 584.913 284.354C584.9 284.467 584.978 284.571 585.091 284.589C585.209 284.603 585.317 284.524 585.338 284.407ZM566.994 284.643C566.928 284.553 566.802 284.533 566.712 284.599C566.708 284.602 566.703 284.606 566.699 284.609C566.608 284.677 566.59 284.806 566.658 284.897C566.658 284.898 566.659 284.898 566.659 284.899C566.729 284.992 566.86 285.012 566.955 284.943C567.044 284.868 567.061 284.738 566.994 284.643ZM571.053 281.57C570.985 281.476 570.854 281.455 570.761 281.523C570.76 281.524 570.759 281.525 570.758 281.525C570.665 281.595 570.645 281.726 570.714 281.821C570.789 281.91 570.919 281.927 571.015 281.86C571.106 281.792 571.124 281.663 571.056 281.572C571.055 281.572 571.054 281.571 571.053 281.57ZM575.112 278.487C575.042 278.394 574.911 278.374 574.816 278.443C574.723 278.511 574.703 278.642 574.771 278.735C574.773 278.738 574.775 278.741 574.778 278.743C574.843 278.833 574.97 278.854 575.06 278.788C575.063 278.786 575.065 278.784 575.068 278.782C575.161 278.713 575.181 278.581 575.112 278.487ZM588.87 295.049C588.874 294.946 588.793 294.859 588.69 294.855C588.587 294.851 588.5 294.932 588.496 295.035C588.492 295.138 588.573 295.225 588.676 295.229C588.779 295.232 588.866 295.152 588.87 295.049ZM589.054 290.505C589.058 290.402 588.977 290.315 588.874 290.311C588.771 290.307 588.684 290.388 588.68 290.491C588.676 290.594 588.757 290.681 588.86 290.685C588.961 290.691 589.048 290.614 589.054 290.513C589.054 290.511 589.054 290.508 589.054 290.505ZM589.244 285.956C589.251 285.921 589.243 285.885 589.223 285.856L589.217 285.851C589.184 285.798 589.126 285.765 589.063 285.762C588.957 285.758 588.868 285.84 588.864 285.946C588.864 285.947 588.864 285.947 588.864 285.948C588.861 286.051 588.941 286.137 589.044 286.142C589.091 286.145 589.137 286.128 589.17 286.093C589.217 286.063 589.245 286.012 589.244 285.956ZM571.455 286.869C571.385 286.793 571.266 286.788 571.19 286.858C571.189 286.859 571.188 286.86 571.187 286.86C571.111 286.925 571.102 287.04 571.168 287.116C571.17 287.118 571.172 287.12 571.173 287.122C571.246 287.198 571.366 287.204 571.446 287.135C571.519 287.063 571.523 286.947 571.455 286.869ZM574.799 283.789C574.729 283.713 574.61 283.708 574.534 283.778C574.533 283.779 574.532 283.78 574.531 283.78C574.455 283.845 574.446 283.96 574.512 284.036C574.514 284.038 574.516 284.04 574.517 284.042C574.586 284.118 574.703 284.124 574.779 284.056C574.858 283.987 574.866 283.868 574.799 283.789ZM578.144 280.708C578.074 280.632 577.955 280.627 577.879 280.697C577.878 280.698 577.877 280.699 577.876 280.699C577.8 280.761 577.789 280.872 577.85 280.948C577.854 280.953 577.858 280.957 577.862 280.961C577.932 281.037 578.051 281.042 578.127 280.972C578.128 280.971 578.129 280.97 578.13 280.97C578.204 280.901 578.21 280.785 578.144 280.708ZM594.932 282.805C594.892 282.71 594.785 282.661 594.687 282.694C594.589 282.732 594.539 282.841 594.576 282.939C594.617 283.036 594.728 283.082 594.825 283.041C594.917 283.003 594.964 282.899 594.932 282.805ZM580.575 290.667C580.479 290.629 580.369 290.671 580.324 290.765C580.282 290.858 580.323 290.969 580.416 291.011C580.51 291.055 580.622 291.017 580.668 290.924C580.712 290.827 580.671 290.713 580.575 290.667ZM582.487 286.541C582.391 286.502 582.281 286.545 582.236 286.639C582.194 286.732 582.235 286.843 582.328 286.885C582.417 286.929 582.525 286.893 582.57 286.803C582.572 286.8 582.573 286.796 582.575 286.793C582.618 286.699 582.58 286.587 582.487 286.541ZM584.394 282.421C584.305 282.377 584.197 282.413 584.152 282.503C584.15 282.506 584.149 282.51 584.147 282.513C584.104 282.606 584.146 282.717 584.239 282.759C584.332 282.802 584.443 282.76 584.485 282.667C584.529 282.578 584.493 282.47 584.403 282.425C584.401 282.424 584.397 282.422 584.394 282.421ZM568.777 278.08C568.741 277.983 568.635 277.932 568.537 277.964C568.44 277.999 568.389 278.106 568.424 278.203C568.425 278.205 568.426 278.207 568.426 278.209C568.456 278.303 568.556 278.354 568.65 278.324C568.654 278.323 568.657 278.322 568.661 278.32C568.758 278.289 568.812 278.185 568.78 278.088C568.779 278.086 568.778 278.083 568.777 278.08ZM573.042 276.507C573.001 276.41 572.889 276.365 572.792 276.405C572.7 276.444 572.654 276.547 572.685 276.641C572.724 276.738 572.832 276.787 572.93 276.752C573.027 276.719 573.078 276.614 573.045 276.517C573.045 276.514 573.044 276.511 573.042 276.507ZM594.883 285.629C594.874 285.568 594.817 285.525 594.756 285.534C594.695 285.543 594.652 285.6 594.661 285.661C594.67 285.722 594.727 285.765 594.788 285.756C594.848 285.746 594.89 285.69 594.883 285.629ZM594.476 282.982C594.467 282.921 594.41 282.878 594.349 282.887C594.288 282.896 594.245 282.953 594.254 283.014C594.263 283.075 594.32 283.118 594.381 283.109C594.442 283.098 594.483 283.042 594.476 282.982ZM583.871 282.862C583.822 282.826 583.753 282.837 583.717 282.885C583.681 282.934 583.692 283.003 583.74 283.039C583.788 283.075 583.858 283.064 583.894 283.016C583.93 282.967 583.92 282.898 583.871 282.862ZM585.457 280.699C585.411 280.663 585.345 280.67 585.308 280.716C585.306 280.718 585.305 280.72 585.303 280.723C585.267 280.772 585.277 280.841 585.326 280.876C585.375 280.913 585.446 280.905 585.485 280.858C585.521 280.807 585.509 280.737 585.458 280.701C585.458 280.7 585.458 280.7 585.457 280.699ZM589.583 284.036C589.6 283.98 589.568 283.921 589.512 283.904C589.509 283.903 589.505 283.902 589.502 283.901C589.444 283.885 589.385 283.919 589.369 283.976C589.368 283.978 589.368 283.98 589.367 283.982C589.357 284.041 589.391 284.098 589.448 284.117C589.507 284.131 589.568 284.095 589.583 284.036ZM594.999 288.909C595.003 288.842 594.951 288.785 594.885 288.782C594.884 288.782 594.882 288.782 594.881 288.782C594.813 288.777 594.754 288.828 594.749 288.896C594.749 288.899 594.749 288.902 594.749 288.906C594.745 288.973 594.797 289.03 594.863 289.033C594.864 289.033 594.866 289.033 594.867 289.033C594.937 289.035 594.996 288.98 594.999 288.909ZM595.091 285.848C595.095 285.781 595.043 285.724 594.977 285.721C594.976 285.721 594.974 285.721 594.973 285.721C594.902 285.719 594.843 285.775 594.842 285.846C594.84 285.916 594.895 285.974 594.964 285.977C595.032 285.979 595.089 285.926 595.091 285.858C595.091 285.855 595.091 285.852 595.091 285.848ZM595.187 282.792C595.189 282.721 595.134 282.662 595.063 282.659C594.992 282.657 594.933 282.712 594.93 282.783C594.925 282.789 594.93 282.794 594.931 282.804C594.942 282.865 594.992 282.911 595.054 282.915C595.125 282.918 595.184 282.863 595.187 282.792ZM583.215 283.529C583.163 283.483 583.086 283.482 583.034 283.527C582.984 283.574 582.98 283.652 583.027 283.703C583.068 283.754 583.142 283.761 583.193 283.72C583.197 283.717 583.2 283.714 583.204 283.71C583.256 283.665 583.262 283.583 583.215 283.529C583.216 283.529 583.216 283.529 583.215 283.529ZM585.444 281.431C585.392 281.385 585.315 281.384 585.263 281.429C585.213 281.476 585.209 281.554 585.256 281.605C585.302 281.659 585.384 281.665 585.437 281.618C585.437 281.618 585.437 281.618 585.438 281.617C585.487 281.566 585.49 281.486 585.444 281.431ZM589.284 286.024C589.314 285.962 589.288 285.888 589.227 285.858C589.226 285.857 589.224 285.857 589.223 285.856L589.217 285.851C589.154 285.828 589.083 285.857 589.055 285.918C589.025 285.98 589.051 286.054 589.113 286.084C589.114 286.085 589.116 286.085 589.117 286.086C589.134 286.092 589.152 286.095 589.171 286.094C589.219 286.097 589.265 286.069 589.284 286.024ZM590.479 283.058C590.413 283.033 590.338 283.062 590.306 283.125C590.283 283.191 590.314 283.264 590.378 283.292C590.44 283.319 590.513 283.29 590.539 283.227C590.539 283.226 590.539 283.226 590.54 283.225C590.57 283.163 590.542 283.088 590.479 283.058ZM585.924 298.979C585.815 298.927 585.685 298.971 585.63 299.079C585.58 299.188 585.627 299.316 585.735 299.367C585.844 299.417 585.973 299.374 586.029 299.267C586.079 299.159 586.032 299.03 585.924 298.979ZM588.174 294.234C588.065 294.183 587.936 294.23 587.886 294.339C587.835 294.448 587.882 294.577 587.991 294.627C588.1 294.678 588.229 294.631 588.279 294.522C588.329 294.414 588.282 294.285 588.174 294.234ZM590.429 289.494C590.323 289.439 590.193 289.481 590.138 289.587C590.083 289.693 590.125 289.823 590.231 289.878C590.234 289.879 590.237 289.881 590.24 289.882C590.349 289.934 590.479 289.89 590.534 289.782C590.584 289.674 590.538 289.545 590.429 289.494ZM592.679 284.749C592.572 284.698 592.444 284.743 592.393 284.849C592.392 284.85 592.392 284.852 592.391 284.853C592.34 284.962 592.387 285.091 592.496 285.141C592.605 285.192 592.734 285.145 592.784 285.036C592.835 284.929 592.79 284.801 592.684 284.75C592.682 284.75 592.681 284.75 592.679 284.749ZM571.22 282.698C571.178 282.585 571.051 282.527 570.938 282.569C570.828 282.61 570.77 282.729 570.805 282.841C570.849 282.954 570.973 283.014 571.089 282.977C571.201 282.934 571.258 282.811 571.22 282.698ZM576.165 280.938C576.125 280.825 576.001 280.765 575.888 280.805C575.775 280.845 575.715 280.969 575.755 281.082C575.755 281.083 575.756 281.084 575.756 281.085C575.796 281.198 575.92 281.258 576.033 281.218C576.146 281.178 576.206 281.054 576.166 280.941C576.166 280.94 576.165 280.939 576.165 280.938ZM581.11 279.177C581.074 279.065 580.954 279.003 580.842 279.039C580.84 279.04 580.838 279.04 580.837 279.041C580.724 279.085 580.664 279.209 580.701 279.325C580.743 279.437 580.867 279.495 580.979 279.455C581.091 279.417 581.15 279.295 581.112 279.184C581.112 279.182 581.111 279.179 581.11 279.177ZM579.035 290.918C578.956 290.831 578.821 290.824 578.734 290.903C578.733 290.904 578.732 290.905 578.731 290.906C578.642 290.985 578.632 291.12 578.708 291.211C578.792 291.296 578.926 291.303 579.018 291.228C579.108 291.147 579.116 291.008 579.035 290.918ZM582.929 287.4C582.854 287.313 582.722 287.303 582.635 287.379C582.631 287.382 582.628 287.385 582.625 287.389C582.537 287.467 582.53 287.601 582.607 287.688C582.688 287.778 582.827 287.786 582.917 287.705C583.004 287.63 583.014 287.498 582.939 287.411C582.935 287.407 582.932 287.403 582.929 287.4ZM586.828 283.876C586.745 283.788 586.606 283.785 586.518 283.868C586.432 283.95 586.427 284.086 586.507 284.174C586.586 284.261 586.721 284.268 586.808 284.189C586.809 284.188 586.81 284.187 586.811 284.186C586.901 284.106 586.909 283.967 586.828 283.876ZM580.7 294.107C580.616 294.02 580.478 294.017 580.391 294.101C580.304 294.185 580.301 294.323 580.385 294.41C580.469 294.497 580.607 294.5 580.694 294.416C580.781 294.333 580.783 294.194 580.7 294.107ZM584.432 290.442C584.343 290.359 584.206 290.359 584.117 290.441C584.037 290.526 584.036 290.659 584.116 290.745C584.2 290.832 584.338 290.835 584.426 290.751C584.51 290.667 584.512 290.53 584.432 290.442ZM588.153 286.778C588.069 286.694 587.933 286.693 587.849 286.777C587.765 286.861 587.764 286.997 587.848 287.081C587.932 287.168 588.07 287.171 588.158 287.087C588.239 286.999 588.237 286.863 588.153 286.778ZM591.885 283.113C591.803 283.029 591.669 283.027 591.585 283.108C591.584 283.109 591.583 283.11 591.581 283.112C591.498 283.196 591.497 283.331 591.58 283.416C591.658 283.5 591.79 283.505 591.874 283.427C591.877 283.424 591.881 283.421 591.884 283.417C591.968 283.335 591.971 283.201 591.889 283.117C591.888 283.115 591.886 283.114 591.885 283.113ZM593.253 293.043C593.142 292.997 593.014 293.048 592.965 293.158C592.921 293.269 592.975 293.395 593.085 293.44C593.193 293.488 593.319 293.44 593.367 293.332C593.367 293.331 593.367 293.331 593.368 293.33C593.413 293.22 593.362 293.093 593.253 293.043ZM577.18 283.812C577.137 283.704 577.014 283.651 576.906 283.694C576.903 283.695 576.9 283.696 576.897 283.698C576.787 283.742 576.734 283.866 576.777 283.976C576.822 284.088 576.948 284.144 577.061 284.101C577.173 284.057 577.227 283.931 577.183 283.819C577.182 283.816 577.181 283.814 577.18 283.812ZM582.03 281.853C581.987 281.745 581.864 281.692 581.756 281.735C581.753 281.736 581.75 281.737 581.747 281.739C581.637 281.783 581.584 281.907 581.627 282.017C581.672 282.129 581.798 282.185 581.91 282.142C582.022 282.098 582.076 281.972 582.032 281.86C582.031 281.857 582.031 281.855 582.03 281.853ZM585.742 286.676C585.7 286.6 585.605 286.573 585.53 286.614C585.525 286.617 585.52 286.62 585.516 286.623C585.44 286.671 585.417 286.772 585.465 286.849C585.513 286.926 585.614 286.948 585.691 286.9C585.766 286.852 585.789 286.753 585.742 286.676ZM589.069 284.557C589.023 284.48 588.924 284.455 588.847 284.501C588.845 284.502 588.844 284.503 588.842 284.504C588.765 284.552 588.741 284.653 588.789 284.731C588.837 284.809 588.938 284.832 589.016 284.784C589.093 284.735 589.117 284.634 589.069 284.557ZM592.396 282.437C592.348 282.36 592.247 282.336 592.169 282.384C592.092 282.432 592.068 282.533 592.116 282.611C592.164 282.688 592.265 282.712 592.343 282.664C592.419 282.615 592.443 282.515 592.396 282.437ZM592.783 291.06C592.71 291.007 592.609 291.024 592.556 291.096L592.555 291.097C592.507 291.171 592.523 291.27 592.593 291.325C592.667 291.376 592.767 291.359 592.821 291.287C592.874 291.218 592.862 291.119 592.793 291.066C592.79 291.065 592.787 291.062 592.783 291.06ZM595.043 287.83C594.972 287.78 594.874 287.797 594.824 287.868C594.823 287.87 594.822 287.871 594.821 287.873C594.769 287.946 594.785 288.047 594.857 288.1L594.858 288.101C594.935 288.15 595.036 288.131 595.091 288.058C595.141 287.983 595.12 287.882 595.045 287.832C595.044 287.831 595.044 287.83 595.043 287.83ZM594.577 285.921C594.548 285.851 594.468 285.817 594.398 285.845C594.394 285.846 594.391 285.848 594.387 285.85C594.317 285.875 594.28 285.952 594.305 286.022C594.307 286.027 594.308 286.031 594.311 286.035C594.341 286.11 594.426 286.147 594.502 286.116C594.576 286.087 594.611 286.003 594.582 285.93C594.58 285.927 594.578 285.924 594.577 285.921Z" fill="white"/>
<path d="M573.657 212.496C573.994 216.737 573.553 221.004 572.356 225.086C572.356 225.086 577.208 219.476 579.531 218.198L580.894 211.959L573.517 212.075L573.657 212.496Z" fill="url(#paint16_linear)"/>
<path d="M583.519 209.715C582.139 209.985 580.599 211.455 579.789 213.535C578.819 213.555 578.149 213.525 578.149 213.525C563.859 212.165 567.089 199.185 567.089 199.185C565.819 196.085 565.899 195.335 569.449 195.275C572.099 195.235 576.519 191.615 576.519 191.615C576.621 191.529 576.736 191.458 576.859 191.405C576.937 194.352 577.529 197.262 578.609 200.005C580.659 205.015 581.779 205.525 583.619 205.425C585.459 205.315 586.679 209.105 583.519 209.715Z" fill="#FFBEB6"/>
<path d="M604.309 281.395C604.309 281.395 586.039 290.025 562.309 263.915L572.369 225.065C572.659 224.735 577.279 219.435 579.529 218.195L579.609 217.845C580.289 217.245 580.999 216.595 581.739 215.915C587.953 220.938 593.051 227.201 596.709 234.305C602.929 246.265 600.729 250.315 604.059 257.335C607.389 264.355 612.099 273.045 604.309 281.395Z" fill="url(#paint17_linear)"/>
<path d="M540.298 229.966L532.539 238.165C531.32 230.71 528.177 223.702 523.419 217.835C516.179 208.505 517.809 203.805 521.529 199.285C525.249 194.755 525.829 196.795 526.649 200.595C527.479 204.395 529.119 209.335 530.819 210.415C532.509 211.495 533.009 207.605 535.469 206.565C537.919 205.525 538.319 207.135 537.479 207.925C535.693 209.748 534.079 211.734 532.659 213.855C531.169 216.165 530.909 216.635 533.689 220.905C535.698 224.062 537.905 227.089 540.298 229.966Z" fill="url(#paint18_linear)"/>
<path d="M566.809 270.545C554.829 272.835 547.809 267.205 544.969 264.355C542.129 261.505 539.929 260.275 532.609 258.155C525.289 256.035 522.949 248.315 522.949 248.315L541.899 228.245C541.899 228.245 542.689 229.695 547.809 234.975C552.929 240.255 554.839 241.045 561.909 236.975C568.979 232.915 572.359 225.085 572.359 225.085C572.36 225.077 572.363 225.07 572.369 225.065L572.409 225.025L576.499 220.645C576.514 220.637 576.528 220.627 576.539 220.615C577.455 219.713 578.457 218.904 579.532 218.199L579.409 217.535L585.879 210.615V210.915C598.559 224.075 585.139 267.045 566.809 270.545Z" fill="#A1C3FC"/>
<path d="M599.448 201.558C603.138 201.558 606.129 198.567 606.129 194.877C606.129 191.187 603.138 188.196 599.448 188.196C595.758 188.196 592.767 191.187 592.767 194.877C592.767 198.567 595.758 201.558 599.448 201.558Z" fill="url(#paint19_linear)"/>
<path d="M569.564 203.197C568.366 203.962 566.774 203.612 566.008 202.413C565.731 201.979 565.59 201.472 565.604 200.957C565.612 200.565 566.225 200.504 566.217 200.901C566.147 201.981 566.965 202.914 568.046 202.985C568.453 203.012 568.859 202.91 569.206 202.695C569.544 202.494 569.905 202.993 569.564 203.197Z" fill="#1C2868"/>
<path d="M610.653 223.659C608.317 220.752 604.471 219.759 601.757 217.463C601.138 216.876 600.569 216.239 600.055 215.559C599.973 215.433 599.885 215.314 599.809 215.181C599.802 215.168 599.789 215.17 599.78 215.159C598.144 212.688 598.293 210.394 598.231 205.831C598.198 204.548 597.966 203.277 597.543 202.065C600.327 203.037 603.419 202.434 605.634 200.489C605.881 200.282 605.526 199.93 605.28 200.135C603.093 202.052 600.007 202.562 597.319 201.45C594.113 193.247 585.53 188.48 576.872 190.093C576.777 193.48 577.368 196.852 578.609 200.005C580.653 205.012 581.777 205.523 583.616 205.421C585.455 205.319 586.682 209.1 583.514 209.713C581.463 210.11 579.073 213.163 579.221 216.93C579.214 217.106 579.194 217.275 579.197 217.455C579.317 223.452 587.877 230.279 581.671 235.642C581.427 235.853 581.782 236.205 582.025 235.996C583.987 234.36 584.826 231.736 584.177 229.265C583.616 227.069 582.805 224.945 581.761 222.934C581.898 223.092 582.036 223.25 582.185 223.407C585.581 226.861 586.586 232.009 584.74 236.487C584.74 236.487 600.375 240.983 610.901 233.932C610.901 233.932 613.967 227.187 605.894 220.954C605.179 220.402 604.554 219.9 603.967 219.417C604.902 219.925 605.873 220.418 606.829 221.015C611.019 223.595 613.436 228.283 613.106 233.192C613.09 233.514 613.59 233.513 613.606 233.192C613.842 229.759 612.789 226.359 610.653 223.659Z" fill="#23286B"/>
<defs>
<linearGradient id="paint0_linear" x1="546.781" y1="219.94" x2="562.269" y2="238.683" gradientUnits="userSpaceOnUse">
<stop stop-color="#FFBEB6"/>
<stop offset="1" stop-color="#F2A19C"/>
</linearGradient>
<linearGradient id="paint1_linear" x1="503.55" y1="444.729" x2="535.116" y2="444.729" gradientUnits="userSpaceOnUse">
<stop offset="0.0898" stop-color="#EEEEEE"/>
<stop offset="0.8178" stop-color="#D6D7D8"/>
</linearGradient>
<linearGradient id="paint2_linear" x1="531.613" y1="444.729" x2="644.288" y2="444.729" gradientUnits="userSpaceOnUse">
<stop offset="0.0898" stop-color="#EEEEEE"/>
<stop offset="0.8178" stop-color="#D6D7D8"/>
</linearGradient>
<linearGradient id="paint3_linear" x1="541.429" y1="382.645" x2="610.129" y2="382.645" gradientUnits="userSpaceOnUse">
<stop offset="0.0898" stop-color="#EEEEEE"/>
<stop offset="0.8178" stop-color="#D6D7D8"/>
</linearGradient>
<linearGradient id="paint4_linear" x1="545.219" y1="411.775" x2="615.229" y2="411.775" gradientUnits="userSpaceOnUse">
<stop offset="0.0898" stop-color="#EEEEEE"/>
<stop offset="0.8178" stop-color="#D6D7D8"/>
</linearGradient>
<linearGradient id="paint5_linear" x1="549.029" y1="441.015" x2="620.349" y2="441.015" gradientUnits="userSpaceOnUse">
<stop offset="0.0898" stop-color="#EEEEEE"/>
<stop offset="0.8178" stop-color="#D6D7D8"/>
</linearGradient>
<linearGradient id="paint6_linear" x1="552.829" y1="470.145" x2="625.449" y2="470.145" gradientUnits="userSpaceOnUse">
<stop offset="0.0898" stop-color="#EEEEEE"/>
<stop offset="0.8178" stop-color="#D6D7D8"/>
</linearGradient>
<linearGradient id="paint7_linear" x1="537.449" y1="353.435" x2="605.009" y2="353.435" gradientUnits="userSpaceOnUse">
<stop offset="0.0898" stop-color="#EEEEEE"/>
<stop offset="0.8178" stop-color="#D6D7D8"/>
</linearGradient>
<linearGradient id="paint8_linear" x1="556.639" y1="499.395" x2="630.569" y2="499.395" gradientUnits="userSpaceOnUse">
<stop offset="0.0898" stop-color="#EEEEEE"/>
<stop offset="0.8178" stop-color="#D6D7D8"/>
</linearGradient>
<linearGradient id="paint9_linear" x1="560.439" y1="528.525" x2="635.669" y2="528.525" gradientUnits="userSpaceOnUse">
<stop offset="0.0898" stop-color="#EEEEEE"/>
<stop offset="0.8178" stop-color="#D6D7D8"/>
</linearGradient>
<linearGradient id="paint10_linear" x1="565.234" y1="227.161" x2="561.819" y2="262.828" gradientUnits="userSpaceOnUse">
<stop stop-color="#A1C3FC"/>
<stop offset="0.6955" stop-color="#81AEF2"/>
<stop offset="1" stop-color="#78A9EF"/>
</linearGradient>
<linearGradient id="paint11_linear" x1="442.034" y1="274.281" x2="394.285" y2="507.147" gradientUnits="userSpaceOnUse">
<stop offset="0.0898" stop-color="#EEEEEE"/>
<stop offset="0.8178" stop-color="#D6D7D8"/>
</linearGradient>
<linearGradient id="paint12_linear" x1="411.667" y1="421.061" x2="495.26" y2="646.058" gradientUnits="userSpaceOnUse">
<stop stop-color="#23286B"/>
<stop offset="1" stop-color="#151A4F"/>
</linearGradient>
<linearGradient id="paint13_linear" x1="551.253" y1="360.821" x2="577.819" y2="377.111" gradientUnits="userSpaceOnUse">
<stop offset="0.1291" stop-color="#428DFC"/>
<stop offset="0.9987" stop-color="#1D72D8"/>
</linearGradient>
<linearGradient id="paint14_linear" x1="518.255" y1="314.315" x2="567.587" y2="310.813" gradientUnits="userSpaceOnUse">
<stop stop-color="#23286B"/>
<stop offset="1" stop-color="#151A4F"/>
</linearGradient>
<linearGradient id="paint15_linear" x1="563.604" y1="328.182" x2="606.018" y2="328.182" gradientUnits="userSpaceOnUse">
<stop stop-color="#23286B"/>
<stop offset="1" stop-color="#151A4F"/>
</linearGradient>
<linearGradient id="paint16_linear" x1="575.385" y1="226.591" x2="577.586" y2="208.982" gradientUnits="userSpaceOnUse">
<stop stop-color="#FFBEB6"/>
<stop offset="1" stop-color="#F2A19C"/>
</linearGradient>
<linearGradient id="paint17_linear" x1="593.971" y1="248.445" x2="547.364" y2="261.475" gradientUnits="userSpaceOnUse">
<stop stop-color="#A1C3FC"/>
<stop offset="0.6955" stop-color="#81AEF2"/>
<stop offset="1" stop-color="#78A9EF"/>
</linearGradient>
<linearGradient id="paint18_linear" x1="535.408" y1="222.706" x2="550.896" y2="241.449" gradientUnits="userSpaceOnUse">
<stop stop-color="#FFBEB6"/>
<stop offset="1" stop-color="#F2A19C"/>
</linearGradient>
<linearGradient id="paint19_linear" x1="605.879" y1="187.689" x2="587.108" y2="208.669" gradientUnits="userSpaceOnUse">
<stop stop-color="#23286B"/>
<stop offset="1" stop-color="#151A4F"/>
</linearGradient>
</defs>
</svg>
