<svg width="750" height="650" viewBox="0 0 750 650" fill="none" xmlns="http://www.w3.org/2000/svg">
<path d="M202.859 577.153L20 359.384L325.873 344.423L202.859 577.153Z" fill="url(#paint0_linear)"/>
<path d="M402.152 576.995C468.428 576.995 522.155 523.268 522.155 456.992C522.155 390.716 468.428 336.989 402.152 336.989C335.876 336.989 282.149 390.716 282.149 456.992C282.149 523.268 335.876 576.995 402.152 576.995Z" fill="url(#paint1_linear)"/>
<path d="M465.084 73C443.158 148.503 486.591 227.484 562.094 249.41C629.168 268.888 700.465 236.829 730.407 173.727L465.084 73Z" fill="url(#paint2_linear)"/>
<path d="M339.877 126.175L595.622 273.829C627.984 292.513 639.071 333.893 620.388 366.255C601.704 398.617 560.324 409.704 527.962 391.021L272.217 243.367C239.855 224.683 228.768 183.303 247.451 150.941C266.135 118.579 307.516 107.491 339.877 126.175Z" fill="#E94A47"/>
<path d="M615.529 547.88L607.107 571.375L666.567 571.377C666.567 571.377 663.518 565.497 653.355 561.141C643.192 556.785 633.705 547.881 633.705 547.881H615.529" fill="url(#paint3_linear)"/>
<path d="M573.573 454.643C573.573 454.643 580.682 483.469 591.182 492.164C594.689 495.069 600.623 496.709 606.995 495.629C612.756 494.541 618.24 492.309 623.123 489.065L622.788 511.902C622.788 511.902 637.829 529.444 626.443 528.376C613.637 527.176 609.758 531.442 604.496 535.131C599.234 538.82 585.407 544.002 570.971 529.01C556.535 514.018 544.108 498.738 561.22 464.216" fill="url(#paint4_linear)"/>
<path d="M631.079 545.767C631.079 545.767 622.127 549.663 609.777 544.923C609.777 544.923 610.117 539.823 612.957 496.183C613.577 486.753 614.328 475.63 615.198 462.25C615.198 462.25 628.127 462.173 630.877 471.223C631.427 473.043 632.877 475.733 633.197 479.163C634.477 492.813 628.629 524.537 631.079 545.767Z" fill="url(#paint5_linear)"/>
<path d="M631.877 471.223C629.127 462.173 616.173 462.197 616.173 462.197C610.484 461.958 603.547 470.713 601.034 476.743C595.825 489.244 576.553 533.779 575.772 534.039C574.991 534.299 551.031 537.946 551.031 537.946C551.031 537.946 548.687 566.854 569.782 569.98C590.523 573.053 615.04 576.877 622.789 511.902L622.818 511.953C622.818 511.953 626.168 480.003 633.198 479.163C633.005 476.481 632.563 473.823 631.877 471.223Z" fill="#23286B"/>
<path d="M612.63 518.7C612.63 518.7 625.985 514.304 630.645 506.638C634.125 500.912 634.248 500.059 632.212 495.202C630.176 490.345 630.645 484.863 629.392 482.67C628.139 480.477 632.212 480.477 633.152 484.237C634.092 487.997 635.188 491.443 635.345 490.346C635.502 489.249 634.702 485.52 633.332 481.257C633.332 481.257 633.308 477.97 638.634 485.176C643.96 492.382 644.117 497.395 643.177 501.781C642.237 506.167 632.525 535.775 619.992 544.704L612.63 518.7Z" fill="url(#paint6_linear)"/>
<path d="M585.777 447.993C585.777 447.993 581.967 456.783 581.957 465.013L581.907 465.033C581.843 465.06 581.776 465.08 581.707 465.093C580.867 465.273 577.817 465.403 571.277 460.343L574.067 448.693L575.227 446.763L585.777 447.993Z" fill="url(#paint7_linear)"/>
<path d="M582.781 419.154C582.781 419.154 589.302 423.883 593.23 424.081C597.012 424.271 595.406 427.861 594.719 428.663C594.719 428.663 601.164 449.999 577.409 448.742C577.409 448.742 573.217 447.065 571.121 439.24C569.025 431.415 566.51 431.135 569.025 424.568C571.54 418.001 578.932 416.883 578.932 416.883L582.781 419.154Z" fill="#FFBEB6"/>
<path opacity="0.51" d="M575.564 562.663C575.652 562.701 575.754 562.66 575.792 562.571C575.83 562.483 575.789 562.38 575.7 562.343C575.612 562.305 575.51 562.346 575.472 562.435C575.434 562.523 575.475 562.625 575.564 562.663ZM577.201 558.739C577.293 558.775 577.397 558.734 577.441 558.645C577.474 558.554 577.428 558.453 577.337 558.419C577.256 558.378 577.157 558.411 577.117 558.492C577.114 558.498 577.111 558.504 577.109 558.51C577.071 558.599 577.112 558.701 577.201 558.739C577.201 558.739 577.2 558.739 577.201 558.739ZM578.849 554.814C578.937 554.852 579.039 554.811 579.077 554.722C579.113 554.63 579.072 554.526 578.984 554.482C578.889 554.451 578.787 554.496 578.746 554.587C578.713 554.679 578.759 554.779 578.849 554.814ZM593.381 562.618C593.417 562.709 593.52 562.755 593.612 562.719C593.697 562.689 593.74 562.595 593.71 562.511C593.707 562.504 593.704 562.497 593.701 562.49C593.669 562.402 593.571 562.356 593.482 562.388C593.39 562.423 593.345 562.526 593.381 562.618ZM569.445 555.778C569.511 555.845 569.619 555.847 569.686 555.781C569.753 555.715 569.755 555.607 569.689 555.54C569.623 555.473 569.515 555.471 569.448 555.537C569.381 555.596 569.374 555.699 569.433 555.766C569.437 555.77 569.441 555.774 569.445 555.778ZM572.462 552.783C572.513 552.837 572.596 552.846 572.658 552.804L572.67 552.802C572.683 552.802 572.696 552.796 572.704 552.785C572.745 552.746 572.764 552.689 572.755 552.633C572.749 552.595 572.731 552.56 572.705 552.531C572.639 552.464 572.531 552.463 572.464 552.528C572.394 552.594 572.39 552.704 572.456 552.774C572.458 552.779 572.46 552.781 572.462 552.783ZM584.356 562.06C584.362 562.157 584.44 562.234 584.537 562.24C584.637 562.239 584.716 562.157 584.715 562.057C584.714 561.959 584.634 561.88 584.535 561.879C584.439 561.885 584.362 561.963 584.356 562.06ZM584.37 557.807C584.373 557.903 584.454 557.978 584.549 557.975C584.642 557.982 584.723 557.913 584.73 557.82C584.73 557.815 584.731 557.81 584.73 557.805C584.727 557.706 584.647 557.627 584.549 557.625C584.452 557.632 584.375 557.71 584.37 557.807ZM558.467 558.43C558.589 558.569 558.802 558.583 558.941 558.461C559.08 558.339 559.094 558.126 558.972 557.987C558.854 557.851 558.648 557.835 558.512 557.953C558.511 557.954 558.511 557.954 558.51 557.955C558.371 558.076 558.352 558.285 558.467 558.43ZM564.564 553.142C564.686 553.281 564.899 553.295 565.038 553.173C565.177 553.051 565.191 552.838 565.069 552.699C564.947 552.56 564.734 552.546 564.595 552.668C564.456 552.786 564.439 552.994 564.556 553.133C564.559 553.136 564.561 553.139 564.564 553.142ZM577.724 567.831C577.71 568.012 577.845 568.17 578.026 568.184C578.03 568.184 578.034 568.185 578.038 568.185C578.214 568.204 578.373 568.077 578.392 567.901C578.393 567.895 578.393 567.889 578.393 567.883C578.399 567.698 578.262 567.538 578.077 567.517C577.894 567.508 577.737 567.648 577.724 567.831ZM578.286 559.793C578.275 559.977 578.416 560.136 578.6 560.147C578.784 560.158 578.943 560.017 578.954 559.833C578.969 559.652 578.834 559.492 578.652 559.477C578.468 559.46 578.305 559.595 578.287 559.779C578.286 559.784 578.286 559.789 578.286 559.793ZM578.858 551.742C578.843 551.923 578.977 552.082 579.158 552.097C579.339 552.112 579.498 551.978 579.513 551.797C579.513 551.792 579.514 551.788 579.514 551.783C579.531 551.603 579.399 551.445 579.219 551.428C579.217 551.428 579.214 551.428 579.212 551.427C579.028 551.419 578.87 551.558 578.858 551.742ZM568.47 561.609C568.64 561.688 568.842 561.615 568.921 561.445C568.997 561.281 568.932 561.086 568.771 561.002C568.605 560.915 568.4 560.978 568.313 561.144C568.226 561.31 568.289 561.515 568.455 561.602C568.46 561.605 568.465 561.607 568.47 561.609ZM572.069 554.379C572.23 554.464 572.429 554.402 572.514 554.241C572.516 554.238 572.517 554.235 572.519 554.232C572.603 554.07 572.54 553.87 572.378 553.786C572.216 553.702 572.016 553.765 571.932 553.927C571.93 553.932 571.927 553.936 571.925 553.941C571.842 554.094 571.898 554.286 572.051 554.369C572.056 554.373 572.063 554.376 572.069 554.379ZM589.309 570.612C589.374 570.784 589.559 570.879 589.737 570.83C589.91 570.768 590.002 570.578 589.943 570.404C589.884 570.231 589.696 570.137 589.523 570.196C589.521 570.197 589.519 570.197 589.517 570.198C589.346 570.254 589.252 570.437 589.308 570.608C589.308 570.609 589.308 570.61 589.309 570.612ZM586.758 562.968C586.81 563.137 586.988 563.232 587.157 563.181C587.162 563.179 587.167 563.178 587.172 563.176C587.347 563.124 587.447 562.94 587.395 562.765C587.393 562.76 587.392 562.754 587.39 562.749C587.33 562.574 587.14 562.481 586.965 562.541C586.79 562.601 586.697 562.791 586.757 562.966C586.757 562.966 586.757 562.967 586.758 562.968ZM584.193 555.315C584.255 555.488 584.445 555.58 584.619 555.521C584.788 555.469 584.883 555.291 584.832 555.122C584.83 555.117 584.829 555.112 584.827 555.107C584.771 554.933 584.586 554.836 584.411 554.888C584.235 554.948 584.139 555.137 584.193 555.315ZM561.794 559.932C561.806 560.006 561.85 560.07 561.915 560.108C562.054 560.193 562.235 560.152 562.324 560.015C562.414 559.874 562.373 559.687 562.232 559.596C562.231 559.595 562.23 559.595 562.229 559.594C562.145 559.541 562.04 559.533 561.949 559.573L561.937 559.575C561.885 559.596 561.843 559.636 561.82 559.687C561.771 559.759 561.761 559.851 561.794 559.932ZM565.731 554.004C565.873 554.09 566.058 554.044 566.144 553.901C566.229 553.76 566.185 553.578 566.045 553.491C565.906 553.405 565.724 553.446 565.636 553.584C565.546 553.725 565.587 553.913 565.728 554.003C565.729 554.003 565.73 554.004 565.731 554.004ZM569.547 547.9C569.691 547.983 569.875 547.934 569.958 547.79C570.038 547.651 569.996 547.474 569.861 547.387C569.722 547.297 569.535 547.336 569.445 547.476C569.355 547.616 569.394 547.802 569.534 547.892C569.538 547.895 569.542 547.898 569.547 547.9ZM582.425 570.119C582.464 570.276 582.623 570.372 582.78 570.335C582.935 570.301 583.033 570.147 582.999 569.992C582.998 569.988 582.997 569.984 582.996 569.98C582.962 569.82 582.805 569.717 582.645 569.751C582.643 569.751 582.641 569.752 582.64 569.752C582.48 569.797 582.385 569.959 582.425 570.119ZM580.802 563.094C580.836 563.254 580.993 563.357 581.153 563.323C581.155 563.323 581.157 563.322 581.158 563.322C581.31 563.293 581.41 563.146 581.38 562.994C581.378 562.985 581.376 562.976 581.373 562.967C581.339 562.807 581.182 562.704 581.022 562.738C581.02 562.738 581.018 562.739 581.017 562.739C580.863 562.781 580.768 562.937 580.802 563.094ZM579.183 556.092C579.225 556.252 579.389 556.348 579.549 556.305C579.704 556.264 579.8 556.108 579.765 555.951C579.724 555.793 579.568 555.694 579.408 555.723C579.248 555.767 579.148 555.929 579.183 556.092ZM569.793 566.737C569.761 566.891 569.861 567.042 570.015 567.074C570.021 567.075 570.027 567.076 570.033 567.077C570.193 567.104 570.345 566.997 570.373 566.837C570.397 566.674 570.292 566.521 570.132 566.485C569.969 566.463 569.819 566.575 569.793 566.737ZM570.978 559.636C570.95 559.796 571.058 559.948 571.218 559.976C571.378 560.004 571.53 559.896 571.558 559.736C571.586 559.576 571.478 559.424 571.318 559.396C571.158 559.368 571.006 559.476 570.978 559.636ZM572.163 552.536C572.135 552.696 572.243 552.848 572.403 552.876C572.495 552.895 572.59 552.868 572.658 552.805L572.67 552.804C572.714 552.757 572.743 552.699 572.755 552.636C572.777 552.474 572.665 552.323 572.503 552.297C572.343 552.269 572.191 552.376 572.163 552.536ZM595.547 568.086C595.634 568.215 595.81 568.248 595.938 568.161C595.943 568.158 595.948 568.154 595.953 568.15C596.089 568.059 596.125 567.875 596.033 567.739C596.031 567.736 596.029 567.733 596.027 567.73C595.927 567.601 595.743 567.573 595.609 567.668C595.477 567.761 595.445 567.943 595.538 568.075C595.541 568.079 595.544 568.083 595.547 568.086ZM591.363 562.222C591.46 562.356 591.646 562.389 591.783 562.296C591.916 562.196 591.943 562.007 591.843 561.874C591.748 561.748 591.571 561.716 591.438 561.802C591.303 561.891 591.265 562.072 591.353 562.207C591.356 562.213 591.36 562.218 591.363 562.222ZM554.753 554.476C554.825 554.542 554.938 554.538 555.004 554.465C555.07 554.393 555.066 554.28 554.993 554.214C554.92 554.148 554.808 554.152 554.742 554.225C554.679 554.298 554.684 554.408 554.753 554.476ZM571.44 560.62C571.443 560.716 571.524 560.791 571.62 560.788C571.716 560.785 571.791 560.704 571.788 560.608C571.785 560.512 571.704 560.437 571.608 560.44C571.512 560.444 571.436 560.524 571.44 560.62ZM571.286 556.378C571.295 556.476 571.38 556.549 571.478 556.544C571.574 556.541 571.649 556.46 571.646 556.365C571.646 556.273 571.572 556.197 571.479 556.197C571.475 556.197 571.47 556.197 571.466 556.197C571.367 556.196 571.287 556.276 571.286 556.374C571.286 556.376 571.286 556.377 571.286 556.378ZM571.144 552.135C571.146 552.231 571.226 552.307 571.322 552.305C571.418 552.303 571.494 552.223 571.492 552.127C571.492 552.126 571.492 552.124 571.492 552.123C571.493 552.031 571.418 551.955 571.326 551.955C571.321 551.955 571.317 551.955 571.313 551.955C571.216 551.958 571.141 552.039 571.144 552.135ZM563.197 557.101C563.288 557.128 563.385 557.084 563.424 556.997C563.46 556.909 563.417 556.809 563.33 556.774C563.327 556.773 563.324 556.772 563.321 556.771C563.236 556.734 563.137 556.774 563.1 556.859C563.098 556.864 563.096 556.869 563.094 556.875C563.06 556.965 563.106 557.066 563.197 557.101ZM564.694 553.124C564.785 553.151 564.882 553.107 564.921 553.02C564.952 552.929 564.906 552.83 564.817 552.793C564.733 552.754 564.633 552.79 564.593 552.874C564.591 552.878 564.59 552.881 564.588 552.885C564.549 552.976 564.592 553.08 564.682 553.119C564.686 553.121 564.69 553.123 564.694 553.124ZM579.346 556.576C579.385 556.664 579.487 556.704 579.575 556.665C579.663 556.626 579.703 556.524 579.664 556.436C579.634 556.351 579.541 556.308 579.456 556.338C579.449 556.341 579.442 556.344 579.435 556.347C579.348 556.384 579.307 556.484 579.344 556.571C579.344 556.572 579.345 556.574 579.346 556.576ZM577.583 552.713C577.626 552.803 577.733 552.841 577.824 552.8C577.908 552.759 577.943 552.658 577.902 552.574C577.902 552.574 577.902 552.573 577.901 552.573C577.871 552.488 577.777 552.445 577.693 552.475C577.686 552.478 577.679 552.481 577.672 552.484C577.585 552.521 577.544 552.621 577.581 552.708C577.581 552.709 577.582 552.711 577.583 552.713ZM554.325 554.607C554.419 554.668 554.545 554.641 554.606 554.546C554.667 554.452 554.64 554.326 554.545 554.265C554.544 554.264 554.543 554.264 554.542 554.263C554.453 554.205 554.335 554.23 554.277 554.319C554.276 554.321 554.275 554.322 554.274 554.324C554.209 554.41 554.226 554.532 554.313 554.597C554.317 554.601 554.321 554.604 554.325 554.607ZM571.723 562.147C571.74 562.249 571.836 562.317 571.937 562.3C571.945 562.299 571.952 562.297 571.96 562.295C572.066 562.27 572.132 562.164 572.108 562.058C572.079 561.953 571.978 561.884 571.869 561.898C571.76 561.926 571.695 562.037 571.723 562.146C571.723 562.146 571.723 562.146 571.723 562.147ZM570.671 557.415C570.699 557.524 570.81 557.589 570.919 557.562H570.92C571.026 557.537 571.092 557.431 571.068 557.325C571.039 557.22 570.938 557.151 570.829 557.165C570.72 557.195 570.652 557.303 570.671 557.415ZM569.64 552.668C569.652 552.771 569.745 552.846 569.849 552.834C569.859 552.833 569.869 552.831 569.879 552.828C569.985 552.803 570.051 552.697 570.027 552.591C569.998 552.486 569.897 552.417 569.788 552.431C569.682 552.457 569.617 552.562 569.64 552.668ZM561.794 559.932C561.817 559.949 561.844 559.962 561.871 559.969C561.978 559.989 562.08 559.918 562.1 559.811C562.1 559.809 562.101 559.806 562.101 559.804C562.118 559.699 562.052 559.598 561.948 559.572L561.936 559.574C561.829 559.554 561.727 559.625 561.707 559.731C561.707 559.733 561.706 559.736 561.706 559.738C561.692 559.816 561.727 559.893 561.794 559.932ZM562.563 554.96C562.54 555.065 562.608 555.169 562.713 555.191C562.714 555.191 562.715 555.191 562.716 555.192C562.825 555.211 562.931 555.145 562.96 555.038C562.974 554.927 562.903 554.823 562.794 554.796C562.685 554.779 562.582 554.852 562.563 554.96ZM563.409 550.195C563.391 550.304 563.464 550.407 563.573 550.425C563.682 550.443 563.785 550.37 563.803 550.261C563.821 550.152 563.748 550.049 563.639 550.031C563.532 550.011 563.43 550.082 563.41 550.189C563.41 550.19 563.41 550.193 563.409 550.195ZM579.888 556.055C579.951 556.145 580.075 556.167 580.166 556.104C580.168 556.103 580.17 556.101 580.172 556.1C580.259 556.038 580.28 555.917 580.219 555.829C580.165 555.739 580.048 555.709 579.957 555.763C579.953 555.765 579.949 555.768 579.946 555.77C579.851 555.834 579.826 555.961 579.888 556.055ZM577.122 552.079C577.177 552.166 577.293 552.191 577.379 552.136C577.384 552.133 577.389 552.13 577.393 552.126C577.483 552.072 577.513 551.955 577.459 551.865C577.457 551.861 577.454 551.857 577.452 551.853C577.388 551.759 577.262 551.734 577.167 551.796C577.076 551.861 577.056 551.987 577.122 552.079C577.122 552.078 577.122 552.078 577.122 552.079ZM558.014 555.325C557.985 555.512 558.112 555.688 558.3 555.718C558.486 555.747 558.66 555.622 558.692 555.436C558.721 555.249 558.594 555.073 558.406 555.043C558.22 555.014 558.045 555.14 558.014 555.325ZM583.321 565.286C583.434 565.436 583.646 565.471 583.801 565.364C583.956 565.254 583.992 565.039 583.881 564.884C583.771 564.729 583.556 564.693 583.401 564.804C583.4 564.805 583.399 564.805 583.398 564.806C583.247 564.919 583.213 565.132 583.321 565.286ZM578.429 558.569C578.541 558.721 578.755 558.756 578.909 558.647C579.061 558.529 579.094 558.313 578.985 558.155C578.867 558.004 578.649 557.977 578.498 558.095C578.353 558.209 578.323 558.418 578.429 558.569ZM573.538 551.852C573.65 552.004 573.864 552.039 574.018 551.93C574.168 551.811 574.202 551.597 574.094 551.438C573.983 551.288 573.772 551.256 573.622 551.366C573.62 551.368 573.617 551.37 573.615 551.371C573.463 551.47 573.42 551.674 573.519 551.827C573.526 551.836 573.531 551.844 573.538 551.852ZM568.531 567.622C568.577 567.808 568.765 567.923 568.951 567.877C568.951 567.877 568.951 567.877 568.952 567.877C569.132 567.832 569.241 567.65 569.197 567.47C569.153 567.287 568.969 567.174 568.786 567.217C568.604 567.261 568.491 567.441 568.531 567.622ZM566.582 559.546C566.622 559.728 566.802 559.844 566.984 559.804C566.986 559.804 566.989 559.803 566.991 559.802C567.179 559.762 567.299 559.578 567.259 559.391C567.219 559.203 567.035 559.083 566.848 559.123C566.66 559.163 566.54 559.347 566.58 559.534C566.58 559.539 566.581 559.543 566.582 559.546ZM564.633 551.471C564.681 551.654 564.869 551.762 565.051 551.714C565.229 551.667 565.338 551.487 565.297 551.307C565.254 551.124 565.072 551.01 564.888 551.05C564.702 551.095 564.588 551.284 564.633 551.471C564.634 551.47 564.634 551.47 564.633 551.471ZM562.232 562.136C562.271 562.323 562.455 562.443 562.642 562.404C562.827 562.369 562.948 562.191 562.914 562.006C562.88 561.821 562.701 561.7 562.516 561.734C562.515 561.734 562.514 561.734 562.513 561.734C562.328 561.772 562.204 561.948 562.232 562.136ZM560.638 554.011C560.667 554.191 560.835 554.314 561.015 554.285C561.022 554.284 561.029 554.282 561.036 554.281C561.22 554.244 561.34 554.067 561.306 553.882C561.27 553.697 561.092 553.577 560.907 553.612C560.722 553.647 560.602 553.826 560.638 554.011ZM579.405 568.141C579.514 568.298 579.729 568.338 579.887 568.231C580.042 568.126 580.083 567.916 579.978 567.761C579.882 567.603 579.676 567.554 579.519 567.65C579.515 567.653 579.511 567.655 579.506 567.658C579.345 567.759 579.297 567.972 579.398 568.132C579.401 568.135 579.403 568.138 579.405 568.141ZM574.814 561.249C574.923 561.405 575.138 561.446 575.296 561.339C575.451 561.234 575.492 561.024 575.387 560.869C575.291 560.711 575.085 560.662 574.928 560.758C574.924 560.761 574.92 560.763 574.915 560.766C574.754 560.867 574.706 561.08 574.807 561.24C574.81 561.243 574.812 561.246 574.814 561.249ZM570.224 554.358C570.333 554.515 570.548 554.555 570.706 554.448C570.861 554.343 570.902 554.133 570.797 553.978C570.693 553.819 570.48 553.774 570.321 553.878C570.162 553.982 570.117 554.195 570.221 554.354C570.222 554.355 570.223 554.356 570.224 554.358ZM565.621 564.087C565.679 564.218 565.831 564.277 565.962 564.22C566.089 564.164 566.15 564.018 566.099 563.888C566.051 563.76 565.908 563.696 565.78 563.744C565.772 563.747 565.764 563.751 565.756 563.755C565.629 563.812 565.569 563.958 565.621 564.087ZM563.166 558.357C563.223 558.489 563.376 558.55 563.508 558.493C563.64 558.436 563.701 558.283 563.644 558.151C563.643 558.15 563.643 558.148 563.642 558.147C563.587 558.017 563.437 557.955 563.307 558.01C563.304 558.011 563.301 558.012 563.299 558.014C563.17 558.074 563.111 558.226 563.166 558.357ZM560.71 552.616C560.768 552.748 560.922 552.807 561.054 552.749C561.186 552.691 561.245 552.537 561.187 552.405C561.129 552.273 560.975 552.214 560.843 552.272C560.713 552.332 560.654 552.484 560.71 552.616ZM574.495 554.417C574.592 554.516 574.751 554.518 574.85 554.421C574.852 554.419 574.854 554.417 574.856 554.415C574.958 554.319 574.963 554.158 574.867 554.056C574.862 554.051 574.858 554.046 574.853 554.042C574.746 553.947 574.582 553.956 574.487 554.063C574.396 554.165 574.4 554.32 574.495 554.417ZM570.027 550.062C570.135 550.16 570.301 550.153 570.4 550.045C570.493 549.943 570.492 549.786 570.397 549.686C570.294 549.583 570.127 549.584 570.024 549.687C569.921 549.79 569.922 549.957 570.025 550.06C570.025 550.06 570.026 550.061 570.027 550.062ZM554.805 555.203C554.876 555.31 555.02 555.338 555.127 555.267C555.229 555.208 555.264 555.078 555.205 554.976C555.201 554.969 555.197 554.963 555.192 554.957C555.134 554.851 555.002 554.812 554.896 554.87C554.891 554.873 554.885 554.876 554.88 554.88C554.771 554.942 554.733 555.081 554.796 555.19C554.8 555.194 554.802 555.199 554.805 555.203Z" fill="white"/>
<path d="M590.997 534.863C552.447 561.543 534.397 553.783 534.397 553.783C524.797 546.013 527.117 531.123 534.817 514.233C538.677 505.783 540.487 492.613 547.567 480.053C552.595 471.38 559.517 463.955 567.817 458.333C569.086 458.55 570.321 458.937 571.487 459.483L571.277 460.343C572.497 461.283 573.597 462.043 574.577 462.663C574.767 462.783 574.957 462.893 575.137 463.003C575.217 463.053 575.287 463.093 575.367 463.133C575.537 463.233 575.697 463.323 575.857 463.413C576.82 463.962 577.835 464.414 578.887 464.763L590.997 534.863Z" fill="url(#paint8_linear)"/>
<path d="M567.029 456.735C541.802 485.859 550.569 518.214 560.781 536.349C570.993 554.484 585.678 552.937 591.697 550.686C597.716 548.435 602.542 545.279 614.637 549.654C625.391 553.544 637.213 546.843 637.213 546.843L621.287 510.767C615.746 512.682 609.877 513.467 604.028 513.074C597.589 512.52 592.257 509.444 589.59 505.752C581.608 494.7 581.959 465.013 581.959 465.013C581.959 465.013 578.121 466.903 567.029 456.735Z" fill="#A1C3FC"/>
<path d="M555.213 420.871C546.473 427.644 547.388 438.558 548.684 441.307C550.119 444.071 551.402 446.911 552.527 449.815C552.694 450.453 552.845 451.095 552.956 451.747C553.464 454.718 552.932 457.317 552.455 460.208C551.916 463.473 551.937 466.596 554.452 469.009C554.762 469.307 555.158 468.766 554.851 468.471C550.973 464.75 553.775 459.389 553.885 454.857C554.109 456.125 554.143 457.42 553.984 458.698C553.407 462.08 554.002 465.558 555.672 468.556C573.187 466.79 583.894 453.57 583.894 453.57C578.765 449.436 575.756 446.251 574.982 442.473C576.682 447.433 580.846 451.147 585.968 452.27C586.386 452.37 586.456 451.704 586.041 451.604C579.839 450.254 575.297 444.937 574.932 438.601C575.365 436.291 576.138 434.059 577.227 431.976C582.081 422.045 577.528 417.27 577.528 417.27C580.429 417.689 585.04 420.655 585.04 420.655C576.967 408.053 563.953 414.098 555.213 420.871Z" fill="#23286B"/>
<path d="M593.013 418.31C592.16 415.775 589.825 413.974 587.805 414.29H587.804C585.785 414.61 584.836 416.932 585.688 419.467C585.788 419.76 585.908 420.046 586.047 420.323C584.964 420.836 584.18 421.822 583.923 422.992C583.806 422.886 583.697 422.769 583.574 422.672C582.595 421.822 581.307 421.419 580.019 421.558C577.683 421.928 576.588 424.619 577.576 427.559C578.041 428.956 578.899 430.188 580.048 431.108C580.841 431.769 581.817 432.17 582.846 432.259C583.099 432.273 583.353 432.261 583.604 432.222C584.75 432.042 585.704 431.248 586.09 430.154C586.536 428.878 586.521 427.487 586.047 426.222C585.714 425.244 585.189 424.341 584.503 423.568C584.817 422.537 585.307 421.323 586.411 420.955C586.445 421.008 586.484 421.056 586.52 421.108C586.58 421.143 586.629 421.194 586.664 421.254L586.676 421.273C586.682 421.278 586.689 421.28 586.695 421.286C587.349 421.96 588.123 422.507 588.977 422.898C589.356 423.048 589.742 423.17 590.129 423.291C590.22 423.313 590.308 423.349 590.398 423.377C590.521 423.416 590.644 423.454 590.767 423.495C590.81 423.492 590.854 423.495 590.897 423.489C592.916 423.166 593.865 420.844 593.013 418.31ZM585.381 426.325C585.804 427.449 585.821 428.685 585.428 429.819C585.114 430.728 584.328 431.392 583.379 431.548C582.309 431.658 581.241 431.318 580.432 430.608C579.414 429.79 578.653 428.694 578.243 427.454C577.379 424.884 578.277 422.541 580.246 422.23C580.448 422.198 580.652 422.188 580.856 422.2C581.716 422.277 582.531 422.616 583.193 423.17C584.211 423.989 584.971 425.084 585.381 426.325ZM590.671 422.813C589.014 423.074 587.082 421.525 586.355 419.361C585.627 417.196 586.379 415.223 588.031 414.962C589.688 414.7 591.621 416.251 592.347 418.414C593.075 420.579 592.323 422.553 590.671 422.813Z" fill="#3E8AF8"/>
<defs>
<linearGradient id="paint0_linear" x1="100.04" y1="350.635" x2="451.32" y2="586.109" gradientUnits="userSpaceOnUse">
<stop stop-color="#23286B"/>
<stop offset="1" stop-color="#151A4F"/>
</linearGradient>
<linearGradient id="paint1_linear" x1="446.529" y1="543.045" x2="261.176" y2="183.392" gradientUnits="userSpaceOnUse">
<stop offset="0.0898" stop-color="#EEEEEE"/>
<stop offset="0.8178" stop-color="#D6D7D8"/>
</linearGradient>
<linearGradient id="paint2_linear" x1="576.215" y1="160.368" x2="465.131" y2="348.293" gradientUnits="userSpaceOnUse">
<stop offset="0.1291" stop-color="#428DFC"/>
<stop offset="0.9987" stop-color="#1D72D8"/>
</linearGradient>
<linearGradient id="paint3_linear" x1="646.513" y1="577.148" x2="602.241" y2="546.157" gradientUnits="userSpaceOnUse">
<stop offset="0.1291" stop-color="#428DFC"/>
<stop offset="0.9987" stop-color="#1D72D8"/>
</linearGradient>
<linearGradient id="paint4_linear" x1="552.928" y1="496.862" x2="630.704" y2="496.862" gradientUnits="userSpaceOnUse">
<stop stop-color="#A1C3FC"/>
<stop offset="0.3464" stop-color="#91B9F7"/>
<stop offset="0.6955" stop-color="#81AEF2"/>
<stop offset="1" stop-color="#78A9EF"/>
</linearGradient>
<linearGradient id="paint5_linear" x1="617.705" y1="487.837" x2="624.665" y2="532.208" gradientUnits="userSpaceOnUse">
<stop stop-color="#23286B"/>
<stop offset="0.4316" stop-color="#1D225F"/>
<stop offset="1" stop-color="#151A4F"/>
</linearGradient>
<linearGradient id="paint6_linear" x1="629.269" y1="506.173" x2="617.048" y2="544.404" gradientUnits="userSpaceOnUse">
<stop stop-color="#FFBEB6"/>
<stop offset="1" stop-color="#F2A19C"/>
</linearGradient>
<linearGradient id="paint7_linear" x1="576.687" y1="463.629" x2="579.876" y2="447.228" gradientUnits="userSpaceOnUse">
<stop stop-color="#FFBEB6"/>
<stop offset="1" stop-color="#F2A19C"/>
</linearGradient>
<linearGradient id="paint8_linear" x1="547.741" y1="498.523" x2="610.138" y2="575.982" gradientUnits="userSpaceOnUse">
<stop stop-color="#A1C3FC"/>
<stop offset="0.3464" stop-color="#91B9F7"/>
<stop offset="0.6955" stop-color="#81AEF2"/>
<stop offset="1" stop-color="#78A9EF"/>
</linearGradient>
</defs>
</svg>
