<?xml version="1.0" encoding="UTF-8"?>
<svg version="1.1" xmlns="http://www.w3.org/2000/svg" xmlns:xlink="http://www.w3.org/1999/xlink" viewBox="0 0 1500 1500" width="1500" height="1500" x="0px" y="0px">
    <!-- ITEM 0 -->
    <g transform="translate(199.0 421.0) rotate(0.0 235.5 484.0) scale(1.9382716049382716 1.936)">
        <g transform="translate(-0.0 -0.0)">
            <g clip-path="url(#clipPathId-collage-item-0)">
                <defs>
                    <clipPath id="clipPathId-collage-item-0">
                        <rect x="0.0" y="0.0" width="243.0" height="500.0"/>
                    </clipPath>
                </defs>
                <path fill="#F2A19C" d="M176.986,281.665c-0.387,3.597-1.472,7.38-0.064,10.711c1.185,2.803,3.932,4.653,6.772,5.743  c2.84,1.09,5.877,1.578,8.747,2.587c0.257,0.09,0.528,0.187,0.797,0.141c0.688-0.118,1.751,1.354,1.815,0.658  c0.513-5.576,1.457-13.377,4.38-18.152c-5.933-7.63-14.205-13.9-17.164-23.102c-2.158,1.918-2.925,1.979-5.661,1.061  C178.366,267.77,177.703,275.01,176.986,281.665z"/>
                <g>
                    <linearGradient id="SVGID_1_-i0" gradientUnits="userSpaceOnUse" x1="160.3899" y1="191.7395" x2="207.7957" y2="191.7395" gradientTransform="matrix(1 0 0 -1 0 502)">
                        <stop offset="0" style="stop-color:#EEEEEE"/>
                        <stop offset="0.5538" style="stop-color:#D6D7D8"/>
                    </linearGradient>
                    <path fill="url(#SVGID_1_-i0)" d="M184.093,333.974c-13.07,0-23.703-10.638-23.703-23.714c0-13.076,10.633-23.714,23.703-23.714   c13.07,0,23.703,10.638,23.703,23.714C207.796,323.337,197.162,333.974,184.093,333.974z M184.093,292.631   c-9.717,0-17.622,7.909-17.622,17.63c0,9.721,7.905,17.63,17.622,17.63c9.717,0,17.622-7.909,17.622-17.63   C201.715,300.54,193.809,292.631,184.093,292.631z"/>
                </g>
                <linearGradient id="SVGID_2_-i0" gradientUnits="userSpaceOnUse" x1="188.2672" y1="209.9305" x2="167.3544" y2="211.5503" gradientTransform="matrix(1 0 0 -1 0 502)">
                    <stop offset="0" style="stop-color:#FFBEB6"/>
                    <stop offset="1" style="stop-color:#F2A19C"/>
                </linearGradient>
                <path fill="url(#SVGID_2_-i0)" d="M177.199,287.1c1.632,4.821,3.48,12.009,1.319,11.648c-3.18-0.53-4.36-3.246-5.301-7.53  c-0.58-2.642-1.595-5.488,0.28-7.342C174.794,282.592,176.613,285.371,177.199,287.1z"/>
                <path fill="#FFCBC5" d="M190.268,282.912c-6.343,0.632-2.039,21.879,2.269,21.693c4.203-0.181,2.543-4.176,2.05-9.3  C194.096,290.181,192.352,282.704,190.268,282.912z"/>
                <linearGradient id="SVGID_3_-i0" gradientUnits="userSpaceOnUse" x1="188.0726" y1="209.3222" x2="165.9311" y2="209.6841" gradientTransform="matrix(1 0 0 -1 0 502)">
                    <stop offset="0" style="stop-color:#FFBEB6"/>
                    <stop offset="1" style="stop-color:#F2A19C"/>
                </linearGradient>
                <path fill="url(#SVGID_3_-i0)" d="M177.033,288.885c-0.662-2.613-1.06-6.576,2.756-4.348c1.368,0.799,0.636-2.863,3.499-0.742  c4.584,3.397,4.583,8.944,6.361,17.286c-0.611,2.958-8.911-1.145-9.752-2.652C177.521,294.181,178.228,293.604,177.033,288.885z"/>
                <linearGradient id="SVGID_4_-i0" gradientUnits="userSpaceOnUse" x1="179.381" y1="234.8544" x2="207.9388" y2="234.8544" gradientTransform="matrix(1 0 0 -1 0 502)">
                    <stop offset="0" style="stop-color:#FFBEB6"/>
                    <stop offset="1" style="stop-color:#F2A19C"/>
                </linearGradient>
                <path fill="url(#SVGID_4_-i0)" d="M205.435,296.804c-2.993-2.726-2.12-1.973-4.181-5.834c-1.174-2.198-1.437-5.977-3.232-7.706  c-1.062-1.023-10.899-4.909-12.19-5.62c-6.573-3.626-3.198-12.25-4.734-19.599c-1.467-7.016-2.896-14.528-0.199-21.169  c0.787,3.114,1.574,6.229,2.361,9.343c2.901,11.473,6.328,23.792,15.594,31.147c1.674,1.329,3.54,2.495,4.785,4.234  c1.592,2.225,1.659,6.525,2.863,8.982c0.784,1.601,1.373,3.213,1.434,4.995S206.753,298.005,205.435,296.804z"/>
                <linearGradient id="SVGID_5_-i0" gradientUnits="userSpaceOnUse" x1="125.1856" y1="149.6143" x2="243" y2="149.6143" gradientTransform="matrix(1 0 0 -1 0 502)">
                    <stop offset="0" style="stop-color:#EEEEEE"/>
                    <stop offset="0.5538" style="stop-color:#D6D7D8"/>
                </linearGradient>
                <rect x="125.186" y="307.819" fill="url(#SVGID_5_-i0)" width="117.814" height="89.134"/>
                <g>
                    <path fill="#D6D7D8" d="M190.569,344.487c-9.252,0-19.149-1.547-29.586-4.637c-9.784-2.894-16.998-6.309-22.698-10.744   c-7.251-5.641-12.064-13.312-13.206-21.048l1.003-0.148c1.104,7.48,5.778,14.914,12.824,20.396   c5.598,4.355,12.703,7.713,22.362,10.572c16.37,4.844,31.382,5.864,44.616,3.032c5.65-1.208,18.18-8.045,21.543-13.191l0.849,0.555   c-3.482,5.326-16.376,12.388-22.181,13.628C201.156,343.958,195.971,344.487,190.569,344.487z"/>
                </g>
                <rect x="177.263" y="337.083" fill="#EEEEEE" width="13.66" height="13.666"/>
                <path id="texture-2_1_-i0" fill="#FFFFFF" d="M217.136,363.806c0.064-0.042,0.08-0.128,0.039-0.192  c-0.042-0.064-0.128-0.08-0.192-0.039c-0.064,0.042-0.08,0.128-0.038,0.192l0,0C216.987,363.831,217.072,363.849,217.136,363.806  L217.136,363.806z M224.842,351.92c0.077,0.016,0.151-0.033,0.167-0.111l0,0c0.016-0.07-0.026-0.139-0.096-0.155  c-0.005-0.002-0.012-0.003-0.018-0.003c-0.073-0.016-0.146,0.028-0.163,0.101C224.717,351.83,224.765,351.905,224.842,351.92  L224.842,351.92L224.842,351.92z M220.552,357.689c0.068,0.038,0.153,0.019,0.199-0.043c0.044-0.066,0.024-0.155-0.043-0.199  c-0.066-0.044-0.155-0.024-0.199,0.043C220.473,357.557,220.49,357.643,220.552,357.689z M231.734,372.356  c0.119,0.086,0.284,0.062,0.372-0.055c0.089-0.109,0.073-0.27-0.035-0.359c-0.004-0.003-0.007-0.006-0.011-0.008  c-0.119-0.086-0.284-0.062-0.372,0.055C231.599,372.102,231.619,372.267,231.734,372.356L231.734,372.356z M226.627,368.49  c0.12,0.086,0.285,0.059,0.371-0.061c0.084-0.117,0.061-0.28-0.055-0.367c-0.115-0.089-0.279-0.068-0.368,0.047l0,0  C226.491,368.231,226.513,368.397,226.627,368.49z M221.516,364.613c0.115,0.088,0.278,0.067,0.366-0.048  c0.002-0.002,0.003-0.005,0.005-0.007c0.089-0.11,0.073-0.27-0.035-0.359c-0.004-0.003-0.007-0.006-0.011-0.008  c-0.121-0.085-0.287-0.063-0.381,0.052C221.374,364.359,221.399,364.525,221.516,364.613z M219.829,379.138  c0.123-0.077,0.16-0.239,0.082-0.363c-0.077-0.123-0.239-0.16-0.363-0.082c-0.121,0.076-0.158,0.234-0.086,0.357  C219.541,379.173,219.703,379.212,219.829,379.138L219.829,379.138z M216.588,373.604c0.123-0.077,0.16-0.239,0.082-0.363  c-0.077-0.123-0.239-0.16-0.363-0.082c-0.121,0.076-0.158,0.234-0.086,0.357C216.299,373.639,216.462,373.679,216.588,373.604  L216.588,373.604z M234.601,359.729c0.142,0.033,0.286-0.052,0.322-0.195c0.037-0.138-0.045-0.28-0.182-0.317  c-0.001,0-0.002-0.001-0.002-0.001c-0.134-0.045-0.278,0.028-0.321,0.162c-0.002,0.006-0.004,0.012-0.006,0.02  C234.378,359.542,234.46,359.685,234.601,359.729z M228.395,358.105c0.143,0.032,0.287-0.051,0.33-0.19  c0.033-0.143-0.053-0.286-0.195-0.322c-0.141-0.037-0.285,0.049-0.321,0.189c-0.001,0.002-0.001,0.004-0.001,0.005  c-0.037,0.138,0.045,0.28,0.182,0.317C228.393,358.104,228.394,358.104,228.395,358.105z M222.2,356.484  c0.135,0.039,0.276-0.039,0.314-0.173c0.001-0.004,0.002-0.008,0.003-0.012c0.042-0.139-0.037-0.286-0.177-0.328  c-0.005-0.001-0.008-0.003-0.012-0.004c-0.143-0.036-0.288,0.051-0.323,0.192c-0.036,0.143,0.051,0.288,0.192,0.323  C222.199,356.483,222.199,356.484,222.2,356.484z M214.324,382.173c0.118-0.055,0.169-0.195,0.117-0.312  c-0.054-0.118-0.194-0.17-0.312-0.116c-0.119,0.054-0.17,0.194-0.116,0.312l0,0C214.066,382.174,214.205,382.225,214.324,382.173z   M230.44,364.447c0.127,0.041,0.262-0.023,0.31-0.147c0.045-0.119-0.015-0.249-0.134-0.294c-0.004-0.001-0.006-0.002-0.01-0.003  c-0.122-0.048-0.258,0.013-0.304,0.135c-0.001,0.002-0.001,0.003-0.001,0.005C230.26,364.263,230.32,364.397,230.44,364.447  L230.44,364.447z M225.079,362.475c0.122,0.043,0.254-0.021,0.298-0.143c0.045-0.119-0.015-0.249-0.134-0.294  c-0.004-0.001-0.006-0.002-0.01-0.003c-0.122-0.048-0.258,0.013-0.305,0.134c-0.001,0.002-0.001,0.003-0.001,0.005  C224.889,362.299,224.955,362.433,225.079,362.475L225.079,362.475z M219.697,360.505c0.122,0.048,0.258-0.013,0.305-0.134  c0.001-0.002,0.001-0.003,0.001-0.005c0.047-0.114-0.008-0.243-0.122-0.291c-0.007-0.003-0.014-0.005-0.021-0.007  c-0.122-0.048-0.258,0.013-0.305,0.134c-0.001,0.002-0.001,0.003-0.001,0.005C219.516,360.329,219.579,360.459,219.697,360.505  L219.697,360.505z M221.551,373.301c0.098,0.085,0.247,0.076,0.334-0.021c0.088-0.095,0.082-0.242-0.012-0.331  c-0.097-0.087-0.246-0.084-0.339,0.008C221.446,373.058,221.454,373.21,221.551,373.301L221.551,373.301z M217.343,369.419  c0.089,0.088,0.233,0.088,0.321-0.001c0.003-0.003,0.006-0.007,0.01-0.01c0.088-0.095,0.082-0.242-0.012-0.331  c-0.097-0.086-0.246-0.084-0.339,0.008C217.238,369.183,217.247,369.332,217.343,369.419L217.343,369.419z M229.423,352.854  c0.124-0.003,0.222-0.104,0.22-0.228c0-0.005,0-0.01-0.001-0.014c-0.002-0.13-0.108-0.234-0.239-0.232c-0.003,0-0.006,0-0.008,0  c-0.13,0.011-0.228,0.122-0.223,0.251c0.004,0.128,0.113,0.228,0.24,0.224C229.416,352.854,229.42,352.853,229.423,352.854  L229.423,352.854z M223.703,353.092c0.131-0.006,0.234-0.116,0.232-0.247c-0.009-0.132-0.123-0.232-0.254-0.223  c-0.126,0.008-0.223,0.113-0.223,0.239c0,0.128,0.105,0.233,0.233,0.232C223.694,353.093,223.699,353.093,223.703,353.092  L223.703,353.092z M219.348,385.59c0.117,0.096,0.287,0.085,0.39-0.025c0.101-0.112,0.093-0.284-0.017-0.385  c-0.116-0.098-0.289-0.087-0.39,0.025C219.229,385.316,219.237,385.488,219.348,385.59L219.348,385.59z M214.444,381.16  c0.111,0.101,0.284,0.093,0.385-0.017c0.101-0.111,0.093-0.284-0.017-0.385c-0.111-0.101-0.284-0.093-0.385,0.017  C214.325,380.885,214.334,381.057,214.444,381.16L214.444,381.16z M228.846,359.439c0.153-0.012,0.269-0.142,0.265-0.295  c-0.013-0.152-0.147-0.265-0.299-0.25c-0.147,0.012-0.256,0.138-0.251,0.285C228.572,359.328,228.696,359.442,228.846,359.439  L228.846,359.439z M222.25,359.78c0.149-0.011,0.265-0.136,0.26-0.286c-0.007-0.151-0.135-0.268-0.286-0.261  c-0.151,0.007-0.268,0.135-0.26,0.286C221.975,359.669,222.101,359.784,222.25,359.78L222.25,359.78z M223.616,372.859  c0.143,0.044,0.296-0.03,0.353-0.169c0.045-0.143-0.032-0.296-0.173-0.345c-0.139-0.053-0.294,0.016-0.347,0.156  c-0.001,0.002-0.001,0.004-0.002,0.005C223.395,372.651,223.471,372.808,223.616,372.859  C223.615,372.858,223.616,372.859,223.616,372.859L223.616,372.859z M217.385,370.645c0.144,0.051,0.301-0.025,0.353-0.168  c0,0,0,0,0-0.001c0.049-0.139-0.025-0.292-0.164-0.34l0,0c-0.141-0.051-0.297,0.022-0.347,0.163  C217.175,370.438,217.247,370.592,217.385,370.645L217.385,370.645z M223.207,377.375c0.14,0.052,0.296-0.02,0.348-0.16  c0.053-0.141-0.02-0.296-0.16-0.349c-0.137-0.05-0.289,0.016-0.344,0.151C222.995,377.16,223.065,377.319,223.207,377.375  L223.207,377.375z M217.102,374.916c0.142,0.055,0.301-0.015,0.357-0.157c0.052-0.138-0.014-0.293-0.148-0.353  c-0.143-0.053-0.303,0.014-0.366,0.152C216.894,374.701,216.964,374.857,217.102,374.916L217.102,374.916z M222.45,363.627  c0.151-0.005,0.272-0.131,0.27-0.282c-0.003-0.149-0.125-0.268-0.274-0.265c-0.147-0.004-0.27,0.111-0.274,0.258  c0,0.004,0,0.008,0,0.012c-0.003,0.151,0.118,0.276,0.269,0.278C222.445,363.628,222.447,363.628,222.45,363.627L222.45,363.627z"/>
                <path fill="#151A4F" d="M93.573,403.576c0.878-6.862,7.609-20.983,10.182-24.252c8.228-10.459,6.765-32.295,7.272-45.594  c1.488-39,1.454-61.116,6.343-106.253c14.233,0.924,28.539,0.698,42.736-0.675c-3.153,2.067-3.567,6.443-3.699,10.212  c-2.948,84.033-24.587,166.125-38.054,249.124c-6.488-2.64-16.991-2.199-23.808-0.587c-3.657-9.189-6.787-25.707-5.333-36.378  c0.453-3.327,3.5-14.217,4.363-17.462C96.358,421.243,92.695,410.447,93.573,403.576z"/>
                <path fill="#23286B" d="M61.692,322.284c14.76-30.659,37.094-58.799,41.759-92.507c13.919,3.46,40.201,1.057,54.12,4.515  c-11.636,23.283-31.16,50.881-40.726,69.848c-3.776,7.487-35.97,55.304-49.452,75.183c-14.227,20.977-19.163,42.233-25.705,66.724  c-2.844,10.648-5.702,21.38-6.421,32.378c-11.274,0.596-22.549,1.193-33.823,1.79c-1.037-14.609-1.829-30.297,5.775-42.812  c1.572-2.588,3.488-5.004,4.547-7.841c1.807-4.847,0.883-10.217,0.914-15.39c0.045-7.452,2.181-14.88,6.1-21.216  c4.199-6.789,10.272-12.178,15.372-18.316C46.793,359.423,53.111,340.11,61.692,322.284z"/>
                <path fill="#23286B" d="M47.441,185.491c-0.864,5.5-1.419,11.148-0.352,16.612c1.382,7.083,5.387,13.374,7.438,20.293  c1.147,3.87,1.678,7.918,3.071,11.707c3.901,10.615,14.33,18.712,15.141,29.992c5.296-10.804,12.363-20.736,20.834-29.279  c-9.614-13.733-19.55-28.977-18.421-45.706c0.507-7.519,3.257-14.689,6.187-21.632c11.004-26.063,25.28-51.954,25.722-80.244  C75.442,110.559,53.535,146.665,47.441,185.491z"/>
                <path fill="#151A4F" d="M176.696,174.962c0.311,9.901-0.152,19.861,1.174,29.678c1.049,7.765,3.204,15.331,5.352,22.865  c4,14.03,8.001,28.061,12.001,42.091c-10.742,0.237-21.459,1.63-31.904,4.149c-3.108-44.688-6.217-89.376-9.325-134.064  c-1.083-15.57-2.212-31.369-7.472-46.063C167.106,114.872,175.766,145.382,176.696,174.962z"/>
                <linearGradient id="SVGID_6_-i0" gradientUnits="userSpaceOnUse" x1="81.9075" y1="335.191" x2="170.826" y2="335.191" gradientTransform="matrix(1 0 0 -1 0 502)">
                    <stop offset="0" style="stop-color:#23286B"/>
                    <stop offset="1" style="stop-color:#151A4F"/>
                </linearGradient>
                <path fill="url(#SVGID_6_-i0)" d="M85.16,129.987c3.081-12.796,6.594-25.988,14.916-36.184s22.82-16.547,34.975-11.509  c7.747,3.211,11.617,11.307,16.284,18.277c6.72,10.033,12.646,27.881,13.507,36.226c4.408,42.683-3.879,74.213,5.984,116.29  c-24.152-7.806-50.567-8.454-75.073-1.841c0.237-24.326-2.681-48.681-8.657-72.262c-2.377-9.378-5.257-18.791-5.187-28.466  C81.959,143.574,83.534,136.739,85.16,129.987z"/>
                <path fill="#F7931E" d="M110.233,80.063c-0.829-1.261-1.684-2.839-1.016-4.193c0.445-0.9,1.434-1.375,2.368-1.746  c4.455-1.773,9.298-2.975,14.093-2.945c0.286,0.002,0.529-0.001,0.787,0.122c0.255,0.12,0.645,0.742,0.787,0.986  c0.803,1.364,1.485,2.357,1.928,3.768c0.309,0.984,0.484,2.068,0.12,3.031c-0.352,0.929-1.155,1.614-2.004,2.13  c-3.693,2.25-8.339,1.942-12.647,1.559c-0.842-0.075-1.712-0.158-2.452-0.568C111.343,81.733,110.772,80.882,110.233,80.063z"/>
                <path fill="#F2A19C" d="M110.866,87.923c5.157-3.316,11.288-5.095,17.419-5.055c-6.718-11.997-11.575-25.034-14.347-38.504  c-4.27,1.025-9.474-1.998-12.816,0.853c3.869,10.895,6.938,22.074,9.176,33.418C110.9,81.698,111.444,84.856,110.866,87.923z"/>
                <linearGradient id="SVGID_7_-i0" gradientUnits="userSpaceOnUse" x1="-962.5394" y1="14.8679" x2="-883.039" y2="14.8679" gradientTransform="matrix(-1 0 0 -1 -883.039 502)">
                    <stop offset="0" style="stop-color:#428DFC"/>
                    <stop offset="1" style="stop-color:#1D72D8"/>
                </linearGradient>
                <path fill="url(#SVGID_7_-i0)" d="M78.653,499.768c4.68-2.029-10.94-15.241-24.648-20.289c-7.048-2.596-9.964-4.336-17.472-4.526  c-8.497-0.216-27.093-0.473-35.59-0.688c-0.232,8.749-1.694,25.504-0.445,25.348C9.182,500.471,77.562,499.611,78.653,499.768z"/>
                <linearGradient id="SVGID_8_-i0" gradientUnits="userSpaceOnUse" x1="-1052.355" y1="14.868" x2="-972.8947" y2="14.868" gradientTransform="matrix(-1 0 0 -1 -883.039 502)">
                    <stop offset="0" style="stop-color:#428DFC"/>
                    <stop offset="1" style="stop-color:#1D72D8"/>
                </linearGradient>
                <path fill="url(#SVGID_8_-i0)" d="M168.508,499.768c4.68-2.029-11.956-15.425-24.648-20.289c-7.661-2.936-10.926-4.941-18.434-5.132  c-8.497-0.216-26.13,0.133-34.628-0.083c-0.232,8.749-1.694,25.504-0.445,25.348C99.037,500.471,167.417,499.611,168.508,499.768z"/>
                <path id="texture_4_-i0" fill="#FFFFFF" d="M8.67,446.016c0.141-0.14,0.169-0.337,0.029-0.478l0,0c-0.14-0.141-0.336-0.169-0.477-0.029  l0,0c-0.141,0.14-0.169,0.337-0.029,0.478l0,0C8.332,446.127,8.529,446.156,8.67,446.016L8.67,446.016z M28.975,419.688  c0.197,0.028,0.337-0.112,0.366-0.307s-0.111-0.338-0.307-0.366l0,0c-0.197-0.028-0.337,0.112-0.366,0.307  C28.555,419.546,28.779,419.659,28.975,419.688L28.975,419.688L28.975,419.688z M20.497,419.489  c0.197,0.028,0.337-0.112,0.366-0.307c0.028-0.196-0.111-0.338-0.307-0.366l0,0c-0.197-0.028-0.337,0.112-0.366,0.307l0,0  C20.133,419.236,20.302,419.461,20.497,419.489L20.497,419.489z M21.309,436.147c0.028-0.197-0.026-0.365-0.166-0.506  c-0.197-0.028-0.365,0.026-0.506,0.166c-0.028,0.197,0.026,0.365,0.139,0.422C21.027,436.427,21.196,436.371,21.309,436.147z   M13.517,432.636c0.028-0.197-0.026-0.365-0.166-0.506c-0.197-0.028-0.365,0.026-0.506,0.166c-0.028,0.197,0.026,0.365,0.139,0.422  C13.235,432.916,13.489,432.833,13.517,432.636L13.517,432.636z M22.377,403.909c0.168-0.056,0.282-0.28,0.226-0.448  c-0.056-0.168-0.28-0.282-0.448-0.226l0,0c-0.168,0.056-0.282,0.28-0.226,0.448l0,0C21.985,403.852,22.209,403.964,22.377,403.909z   M14.395,406.914c0.168-0.056,0.282-0.28,0.226-0.448s-0.28-0.282-0.448-0.226c-0.168,0.056-0.282,0.28-0.226,0.448l0,0  C14.002,406.856,14.226,406.97,14.395,406.914L14.395,406.914L14.395,406.914z M17.69,443.604c0.057-0.113,0.058-0.393-0.139-0.422  c-0.112-0.057-0.393-0.058-0.422,0.139c-0.057,0.113-0.058,0.393,0.139,0.422l0,0C17.408,443.884,17.576,443.829,17.69,443.604  L17.69,443.604z M11.049,439.901c0.057-0.113,0.058-0.393-0.139-0.422c-0.112-0.057-0.308-0.085-0.422,0.139  c-0.057,0.113-0.085,0.308,0.139,0.422l0,0C10.824,440.07,10.993,440.014,11.049,439.901L11.049,439.901L11.049,439.901z   M21.45,412.163c0.168-0.056,0.309-0.196,0.254-0.364c-0.056-0.168-0.167-0.225-0.364-0.255l0,0  c-0.168,0.056-0.309,0.196-0.254,0.364l0,0C21.142,412.077,21.282,412.218,21.45,412.163L21.45,412.163z M14.172,414.187  c0.168-0.056,0.309-0.196,0.254-0.364c-0.056-0.168-0.167-0.225-0.364-0.255l0,0c-0.168,0.056-0.309,0.196-0.254,0.364l0,0  C13.864,414.102,14.004,414.243,14.172,414.187L14.172,414.187z M18.697,428.498c0.197,0.028,0.337-0.112,0.366-0.307  c0.028-0.197-0.111-0.338-0.307-0.366c-0.197-0.028-0.337,0.112-0.366,0.307C18.361,428.329,18.501,428.47,18.697,428.498  L18.697,428.498z M25.69,443.492c0.197,0.028,0.337-0.112,0.366-0.307c0.028-0.196-0.111-0.338-0.307-0.366  c-0.197-0.028-0.337,0.112-0.366,0.307C25.354,443.323,25.494,443.464,25.69,443.492L25.69,443.492z M17.02,442.422  c0.197,0.028,0.337-0.112,0.366-0.307c0.028-0.197-0.111-0.338-0.307-0.366c-0.197-0.028-0.337,0.112-0.366,0.307  C16.683,442.253,16.823,442.394,17.02,442.422L17.02,442.422z M8.293,441.465c0.197,0.028,0.337-0.112,0.366-0.307  c0.028-0.196-0.111-0.338-0.307-0.366c-0.197-0.028-0.337,0.112-0.366,0.307C8.041,441.267,8.181,441.408,8.293,441.465z   M15.963,407.987c0.141-0.14,0.169-0.337,0.029-0.478c-0.14-0.141-0.336-0.169-0.477-0.029s-0.169,0.337-0.029,0.478  C15.541,408.125,15.822,408.126,15.963,407.987L15.963,407.987z M0.82,451.128c0.224,0.114,0.393,0.058,0.506-0.166 M20.557,426.483  c0.168-0.056,0.282-0.28,0.226-0.448c-0.056-0.168-0.28-0.282-0.448-0.226c-0.168,0.056-0.282,0.28-0.226,0.448l0,0  C20.165,426.426,20.389,426.538,20.557,426.483L20.557,426.483L20.557,426.483z M23.57,431.661c0.168-0.056,0.282-0.28,0.226-0.448  c-0.056-0.168-0.28-0.282-0.448-0.226c-0.168,0.056-0.309,0.196-0.226,0.448C23.178,431.603,23.402,431.717,23.57,431.661  L23.57,431.661z M15.086,433.709c0.168-0.056,0.282-0.28,0.226-0.448c-0.056-0.168-0.196-0.309-0.448-0.226  c-0.168,0.056-0.282,0.28-0.31,0.477C14.693,433.652,14.917,433.765,15.086,433.709L15.086,433.709z M10.822,448.579  c0.197,0.028,0.337-0.112,0.366-0.307l0,0c0.028-0.197-0.111-0.338-0.335-0.45c-0.197-0.028-0.337,0.112-0.45,0.336  C10.486,448.41,10.626,448.551,10.822,448.579L10.822,448.579z M8.389,446.015c0.168-0.056,0.225-0.167,0.282-0.28  c-0.056-0.168-0.167-0.225-0.28-0.282c-0.168,0.056-0.225,0.167-0.282,0.28l0,0C8.165,445.902,8.305,446.043,8.389,446.015  L8.389,446.015L8.389,446.015z"/>
                <linearGradient id="SVGID_9_-i0" gradientUnits="userSpaceOnUse" x1="86.2775" y1="465.7945" x2="132.8773" y2="465.7945" gradientTransform="matrix(1 0 0 -1 0 502)">
                    <stop offset="0" style="stop-color:#FFBEB6"/>
                    <stop offset="1" style="stop-color:#F2A19C"/>
                </linearGradient>
                <path fill="url(#SVGID_9_-i0)" d="M90.813,22.099c-5.074,3.636-5.489,9.639-3.219,14.583c2.27,4.944,6.861,8.391,11.496,11.237  c4.681,2.875,9.599,5.364,14.688,7.434c3.359,1.367,6.922,2.568,10.534,2.251s7.282-2.52,8.279-6.008  c0.932-3.261-0.597-6.665-2.088-9.711c-2.932-5.991-5.864-11.98-8.796-17.971c-1.025-2.093-2.079-4.227-3.735-5.865  c-3.631-3.59-9.509-4.014-14.346-2.384c-4.837,1.631-5.696,1.659-9.971,4.45C92.621,20.793,91.478,21.622,90.813,22.099z"/>
                <g>
                    <path fill="#E94A47" d="M127.469,31.768c-1.795,0-3.991-1.505-5.595-3.834c-2.166-3.146-2.451-6.583-0.65-7.824   c0.42-0.29,0.918-0.437,1.481-0.437c1.795,0,3.991,1.505,5.595,3.834c1.001,1.455,1.639,3.042,1.795,4.469   c0.168,1.539-0.238,2.731-1.146,3.355C128.529,31.622,128.031,31.768,127.469,31.768z M122.706,20.687   c-0.354,0-0.658,0.086-0.907,0.258c-1.288,0.888-0.872,3.826,0.91,6.414c1.398,2.031,3.31,3.395,4.758,3.395   c0.354,0,0.658-0.086,0.907-0.258c0.586-0.404,0.839-1.259,0.712-2.41c-0.139-1.262-0.715-2.684-1.624-4.003   C126.067,22.052,124.154,20.687,122.706,20.687z"/>
                </g>
                <linearGradient id="SVGID_10_-i0" gradientUnits="userSpaceOnUse" x1="85.2598" y1="470.4907" x2="132.2934" y2="470.4907" gradientTransform="matrix(1 0 0 -1 0 502)">
                    <stop offset="0" style="stop-color:#FFBEB6"/>
                    <stop offset="1" style="stop-color:#F2A19C"/>
                </linearGradient>
                <path fill="url(#SVGID_10_-i0)" d="M111.666,24.683c5.848,1.017,11.619,2.471,17.251,4.348c1.244,0.561-0.029,3.478-0.856,5.053  c-0.744,1.418-1.488,2.835-2.232,4.252C121.528,33.375,116.782,28.8,111.666,24.683z"/>
                <g>
                    <path fill="#E94A47" d="M114.421,39.324c-3.755,0-6.81-3.056-6.81-6.813c0-3.757,3.055-6.813,6.81-6.813   c3.755,0,6.809,3.056,6.809,6.813C121.23,36.268,118.176,39.324,114.421,39.324z M114.421,26.713c-3.196,0-5.796,2.601-5.796,5.799   s2.6,5.799,5.796,5.799c3.196,0,5.795-2.601,5.795-5.799S117.617,26.713,114.421,26.713z"/>
                </g>
                <path fill="#E94A47" d="M101.071,26.897c-1.349,0.87-2.646,2.012-3.088,3.554c-0.466,1.624,0.438,6.178,2.339,11.571  c-2.536-2.187-6.045-1.817-6.099,0.426c-0.069,2.84,10.854,7.726,6.462,7.106c-8.344-1.179-17.104-10.784-20.994-17.947  c-0.779-1.436-1.773-4.774-1.724-6.406c0.123-4.109,7.253-6.646,11.084-8.132c9.775-3.792,17.072-6.803,26.847-10.596  c3.832-1.486,4.679-2.957,6.291-6.472c-0.093,6.607-0.475,13.933-5.148,18.602C112.771,22.868,106.142,23.627,101.071,26.897z"/>
                <g>
                    <path fill="#E94A47" d="M97.562,35.212c-0.221,0-0.424-0.146-0.486-0.369c-0.666-2.354,0.308-5.148,2.48-7.116   c1.881-1.706,4.334-2.642,6.684-3.457l1.533-0.524c3.168-1.078,6.444-2.192,9.326-3.924c3.742-2.248,6.265-5.313,7.106-8.63   c0.484-1.909,0.433-3.942,0.382-5.908c-0.007-0.28,0.214-0.512,0.494-0.52c0.287,0.012,0.513,0.214,0.52,0.494   c0.052,2.034,0.105,4.138-0.414,6.183c-0.907,3.577-3.594,6.863-7.566,9.249c-2.975,1.788-6.303,2.919-9.522,4.014l-1.528,0.523   c-2.345,0.811-4.594,1.671-6.335,3.25c-1.889,1.712-2.748,4.102-2.186,6.088c0.076,0.27-0.08,0.55-0.35,0.626   C97.656,35.206,97.609,35.212,97.562,35.212z"/>
                </g>
                <path fill="#F7931E" d="M129.218,149.39c5.638-19.674,7.067-40.544,4.164-60.803c-0.373-2.604-1.173-5.65-3.647-6.542  c-1.262-0.455-2.656-0.204-3.973,0.053c-5.221,1.018-10.44,2.035-15.661,3.053c4.022,19.585,9.385,38.895,16.042,57.748  C126.945,145.165,127.784,147.462,129.218,149.39z"/>
                <path fill="#1D72D8" d="M129.664,97.396l16.029,38.656c0,0-5.844,17.596-8.646,23.235c-4.953-7.636-17.412-20.949-17.412-20.949  l0.864-39.838L129.664,97.396z"/>
                <rect x="118.3" y="87.323" fill="#1D72D8" width="12.606" height="12.612"/>
                <linearGradient id="SVGID_11_-i0" gradientUnits="userSpaceOnUse" x1="101.5343" y1="411.6572" x2="122.8221" y2="411.6572" gradientTransform="matrix(1 0 0 -1 0 502)">
                    <stop offset="0" style="stop-color:#FBB03B"/>
                    <stop offset="1" style="stop-color:#F7931E"/>
                </linearGradient>
                <path fill="url(#SVGID_11_-i0)" d="M102.084,90.053c-0.217-0.409-0.553-0.786-0.549-1.248c0.003-0.376,0.2-0.72,0.39-1.044  c2.515-4.286,5.029-8.571,7.544-12.857c0.76,2.36,3.331,3.539,5.637,4.447c2.572,1.013,5.145,2.026,7.717,3.04  c-4.343,8.489-7.998,15.157-12.14,23.391C108.353,100.468,105.241,95.992,102.084,90.053z"/>
                <linearGradient id="SVGID_12_-i0" gradientUnits="userSpaceOnUse" x1="122.885" y1="416.4254" x2="138.5001" y2="416.4254" gradientTransform="matrix(1 0 0 -1 0 502)">
                    <stop offset="0" style="stop-color:#FBB03B"/>
                    <stop offset="1" style="stop-color:#F7931E"/>
                </linearGradient>
                <path fill="url(#SVGID_12_-i0)" d="M122.885,82.327c0,0,5.027-6.572,3.687-10.95c4.03,3.705,5.63,4.889,10.821,9.796  c0.096,6.825,1.107,10.838,1.107,18.599C137.981,99.465,122.885,82.327,122.885,82.327z"/>
                <path fill="none" d="M167.366,233.656c-0.336,3.767-1.26,7.481-2.725,10.968"/>
                <g>
                    <path fill="#A1C3FC" d="M131.69,177.073c-0.223,0-0.426-0.147-0.488-0.371c-4.132-14.897-13.071-28.394-25.173-38.007   c-0.108-0.086-0.177-0.214-0.19-0.354c-0.012-0.14,0.033-0.277,0.127-0.38l9.14-10.261c-1.654-2.287-5.984-6.569-9.825-10.367   c-3.58-3.54-6.961-6.883-7.981-8.395c-2.34-3.467-2.88-8.289-1.484-13.23c1.236-4.373,3.683-8.228,6.049-11.957   c0.15-0.236,0.464-0.306,0.699-0.156c0.236,0.15,0.306,0.463,0.156,0.7c-2.327,3.668-4.733,7.459-5.93,11.69   c-1.316,4.652-0.824,9.167,1.349,12.387c0.964,1.429,4.31,4.737,7.854,8.242c4.261,4.213,8.667,8.571,10.179,10.845   c0.128,0.192,0.109,0.446-0.044,0.618l-9.05,10.161c12.055,9.722,20.959,23.265,25.1,38.194c0.075,0.27-0.083,0.55-0.353,0.625   C131.78,177.067,131.735,177.073,131.69,177.073z"/>
                </g>
                <linearGradient id="SVGID_13_-i0" gradientUnits="userSpaceOnUse" x1="82.7389" y1="246.115" x2="127.1299" y2="246.115" gradientTransform="matrix(1 0 0 -1 0 502)">
                    <stop offset="0" style="stop-color:#FFBEB6"/>
                    <stop offset="1" style="stop-color:#F2A19C"/>
                </linearGradient>
                <path fill="url(#SVGID_13_-i0)" d="M117.458,257.306c-1.699-0.222-9.88-1.62-9.88-1.62s0.29,3.125,0.476,5.148  c-6.289,6.864-9.254,11.197-15.723,16.302c-0.764-7.387,0.376-6.076-0.572-13.441c-0.257-2.001-0.158-9.108-1.143-10.868  c-1.074-1.919-7.878-5.056-7.878-5.056c3.106-4.302,7.481-10.042,10.669-13.135c0,0,3.44,7.202,9.596,11.518  c11.328,7.939,21.056,6.001,22.788,6.636C131.002,254.7,119.454,257.566,117.458,257.306z"/>
            </g>
        </g>
    </g>
    <!-- ITEM 1 -->
    <g transform="translate(1310.0 421.0) rotate(0.0 -191.0 490.0) scale(-2.0648648648648646 2.0631578947368423)">
        <g transform="translate(-0.0 -0.0)">
            <g clip-path="url(#clipPathId-collage-item-1)">
                <defs>
                    <clipPath id="clipPathId-collage-item-1">
                        <rect x="0.0" y="0.0" width="185.0" height="475.0"/>
                    </clipPath>
                </defs>
                <linearGradient id="SVGID_1_-i1" gradientUnits="userSpaceOnUse" x1="24.8379" y1="569.8172" x2="93.97" y2="569.8172" gradientTransform="matrix(1 0 0 1 0 -122)">
                    <stop offset="0" style="stop-color:#008EFF"/>
                    <stop offset="1" style="stop-color:#0073DC"/>
                </linearGradient>
                <path fill="url(#SVGID_1_-i1)" d="M93.462,436.603c-0.112,10.258,0.508,29.012,0.508,29.012s-64.572,0-67.718,0.113  c-6.407,0.113,10.525-15.387,19.447-19.502c12.323-5.684,19.421-10.806,32.764-13.243c0.808-0.147,12.623-3.593,13.206-3.011  C92.236,430.538,93.47,435.801,93.462,436.603z"/>
                <linearGradient id="SVGID_2_-i1" gradientUnits="userSpaceOnUse" x1="24.2737" y1="430.4417" x2="93.8174" y2="430.4417" gradientTransform="matrix(1 0 0 1 0 -122)">
                    <stop offset="0" style="stop-color:#92C4FE"/>
                    <stop offset="1" style="stop-color:#5BABF2"/>
                </linearGradient>
                <path fill="url(#SVGID_2_-i1)" d="M107.313,243.735c2.516-2.294,2.721-6.124,2.748-9.534c0.14-17.847,0.28-35.693,0.42-53.54  c-22.426,0.89-44.895,0.69-67.303-0.598c-8.683,85.566,9.438,172.168,27.457,256.257c6.439,0.561,16.591,0.797,22.769-0.083  c1.598-57.133-1.042-117.659,0.556-174.792c0.143-5.115,0.725-11.057,5.009-13.838C101.558,245.928,105.031,245.815,107.313,243.735  z"/>
                <linearGradient id="SVGID_3_-i1" gradientUnits="userSpaceOnUse" x1="40.4069" y1="432.601" x2="139.7446" y2="432.601" gradientTransform="matrix(1 0 0 1 0 -122)">
                    <stop offset="0" style="stop-color:#92C4FE"/>
                    <stop offset="1" style="stop-color:#5BABF2"/>
                </linearGradient>
                <path fill="url(#SVGID_3_-i1)" d="M84.984,232.746l-24.97-15.798l-18.79,24.305c0,0-0.827-47.137-0.817-53.117  c19.156,0.992,80.209-2.864,99.332-4.372c0.443,86.548-25.412,170.997-51.55,253.482c-4.959,0.033-17.541,0.158-22.501,0.192  c3.355-66.744,15.167-133.581,18.522-200.326c7.396-0.668,15.147-0.918,22.095-2.025C110.799,234.372,84.984,232.746,84.984,232.746  z"/>
                <linearGradient id="SVGID_4_-i1" gradientUnits="userSpaceOnUse" x1="65.701" y1="177.946" x2="87.289" y2="177.946" gradientTransform="matrix(1 0 0 1 0 -122)">
                    <stop offset="0" style="stop-color:#92C4FE"/>
                    <stop offset="1" style="stop-color:#5BABF2"/>
                </linearGradient>
                <ellipse fill="url(#SVGID_4_-i1)" cx="76.495" cy="55.946" rx="10.794" ry="2.972"/>
                <path fill="#FFA29D" d="M151.874,253.985c-1.76,3.15-1.479,5.056,2.087,5.559c3.227-3.82,6.336-12.029,4.102-13.998  C155.875,243.616,153.299,251.435,151.874,253.985z"/>
                <path fill="#FFA29D" d="M81.744,37.853c-4.261,3.017-10.413,3.591-15.246,1.42c1.523,10.85,2.272,21.792,2.237,32.732  c5.598-1.85,11.621-2.603,17.554-2.195C82.602,59.546,81.051,48.641,81.744,37.853z"/>
                <linearGradient id="SVGID_5_-i1" gradientUnits="userSpaceOnUse" x1="15.854" y1="257.9465" x2="137.9911" y2="257.9465" gradientTransform="matrix(1 0 0 1 0 -122)">
                    <stop offset="0" style="stop-color:#008EFF"/>
                    <stop offset="1" style="stop-color:#0073DC"/>
                </linearGradient>
                <path fill="url(#SVGID_5_-i1)" d="M42.158,65.075c20.3-3.495,41.078-4.196,61.567-2.079c4.303,0.445,10.757,2.134,14.889,3.42  c12.276,3.82,13.354,19.102,15.399,31.733c5.679,35.088,5.274,71.158-1.192,106.11c-15.126-7.081-32.44-8.4-49.019-6.444  c-16.58,1.956-32.618,7.026-48.469,12.276c-11.003-37.626-22.122-76.3-18.92-115.379c0.694-8.478,2.459-17.65,8.884-23.203  C29.91,67.52,36.155,66.109,42.158,65.075z"/>
                <linearGradient id="SVGID_6_-i1" gradientUnits="userSpaceOnUse" x1="59.119" y1="221.8694" x2="94.5808" y2="221.8694" gradientTransform="matrix(1 0 0 1 0 -122)">
                    <stop offset="0" style="stop-color:#92C4FE"/>
                    <stop offset="1" style="stop-color:#5BABF2"/>
                </linearGradient>
                <path fill="url(#SVGID_6_-i1)" d="M59.119,63.004c8.223,24.775,17.507,50.828,22.677,76.421c5.396-19.047,13.273-70.8,12.761-76.952  c-4.606,0.303-9.33,0.593-13.746-0.748c-1.677-0.51-3.308-1.253-5.055-1.388c-1.254-0.097-2.51,0.127-3.747,0.35  C67.713,61.459,63.416,62.231,59.119,63.004z"/>
                <linearGradient id="SVGID_7_-i1" gradientUnits="userSpaceOnUse" x1="51.1954" y1="148.6398" x2="92.7033" y2="148.6398" gradientTransform="matrix(1 0 0 1 0 -122)">
                    <stop offset="0" style="stop-color:#FFBFB7"/>
                    <stop offset="1" style="stop-color:#FFA29D"/>
                </linearGradient>
                <path fill="url(#SVGID_7_-i1)" d="M88.978,42.764c1.362-1.825,2.273-5.918,2.966-8.089c0.861-2.699,0.997-8.112,0.371-10.876  c-1.054-4.648-3.057-9.088-5.932-12.883c-1.916-2.527-4.268-4.801-7.138-6.14c-6.216-2.9-13.712-0.912-19.54,2.71  c-3.708,2.304-7.201,5.528-8.201,9.786c-0.745,3.175-0.009,6.492,0.81,9.649c1.468,5.666,3.277,11.413,6.915,15.991  c3.64,4.577,9.494,7.798,15.246,6.801C80.724,48.631,85.179,47.854,88.978,42.764z"/>
                <g>
                    <linearGradient id="SVGID_8_-i1" gradientUnits="userSpaceOnUse" x1="124.113" y1="392.469" x2="159.851" y2="392.469" gradientTransform="matrix(1 0 0 1 0 -122)">
                        <stop offset="0" style="stop-color:#EFEFEF"/>
                        <stop offset="0.5538" style="stop-color:#D7D8D9"/>
                    </linearGradient>
                    <path fill="url(#SVGID_8_-i1)" d="M141.981,288.389c-9.852,0-17.868-8.039-17.868-17.92s8.016-17.92,17.868-17.92   c9.853,0,17.87,8.039,17.87,17.92C159.85,280.35,151.834,288.389,141.981,288.389z M141.981,258.125   c-6.788,0-12.309,5.538-12.309,12.344s5.522,12.344,12.309,12.344c6.788,0,12.31-5.538,12.31-12.344   S148.768,258.125,141.981,258.125z"/>
                </g>
                <linearGradient id="SVGID_9_-i1" gradientUnits="userSpaceOnUse" x1="98.961" y1="425.6945" x2="185" y2="425.6945" gradientTransform="matrix(1 0 0 1 0 -122)">
                    <stop offset="0" style="stop-color:#EFEFEF"/>
                    <stop offset="0.5538" style="stop-color:#D7D8D9"/>
                </linearGradient>
                <rect x="98.961" y="268.682" fill="url(#SVGID_9_-i1)" width="86.039" height="70.025"/>
                <g>
                    <path fill="#D7D8D9" d="M146.711,295.71c-6.774,0-14.02-1.136-21.66-3.401c-7.168-2.126-12.454-4.635-16.637-7.897   c-5.333-4.158-8.872-9.818-9.714-15.528l1.101-0.163c0.8,5.428,4.188,10.827,9.295,14.811c4.07,3.172,9.241,5.622,16.271,7.708   c11.925,3.535,22.858,4.282,32.491,2.216c4.099-0.88,13.183-5.843,15.617-9.576l0.932,0.61c-2.649,4.061-12.042,9.14-16.316,10.057   C154.468,295.322,150.671,295.71,146.711,295.71z"/>
                </g>
                <rect x="136.993" y="290.104" fill="#EFEFEF" width="9.976" height="10.004"/>
                <ellipse fill="#008EFF" cx="90.406" cy="20.763" rx="4.721" ry="6.859"/>
                <linearGradient id="SVGID_10_-i1" gradientUnits="userSpaceOnUse" x1="59.3993" y1="149.1812" x2="92.5343" y2="149.1812" gradientTransform="matrix(1 0 0 1 0 -122)">
                    <stop offset="0" style="stop-color:#FFBFB7"/>
                    <stop offset="1" style="stop-color:#FFA29D"/>
                </linearGradient>
                <path fill="url(#SVGID_10_-i1)" d="M91.013,29.268c-0.411,0.118-2.48,3.714-2.883,3.584c-0.267-0.086-2.724-1.164-2.897-1.427  c-2.21-3.364-1.742-9.656,0.068-9.918c2.85,1.541,7.218,0.793,7.693,4.574C92.705,27.804,91.975,28.742,91.013,29.268z"/>
                <path fill="#92C4FE" d="M69.145,81.073c-3.295-6.5-9.739-12.359-14.45-17.911c2.977-2.515,8.339-5.281,11.314-7.796  c3.253,2.341,6.977,4.02,10.882,4.908C74.309,67.207,71.727,74.14,69.145,81.073z"/>
                <path fill="#92C4FE" d="M84.081,81.073c3.295-6.5,8.232-12.924,12.945-18.477c-2.977-2.515-6.832-4.715-9.809-7.229  c-3.253,2.341-6.977,4.02-10.882,4.908C78.917,67.207,81.499,74.14,84.081,81.073z"/>
                <linearGradient id="SVGID_11_-i1" gradientUnits="userSpaceOnUse" x1="0.2253" y1="251.9684" x2="127.701" y2="251.9684" gradientTransform="matrix(1 0 0 1 0 -122)">
                    <stop offset="0" style="stop-color:#008EFF"/>
                    <stop offset="1" style="stop-color:#0073DC"/>
                </linearGradient>
                <path fill="url(#SVGID_11_-i1)" d="M26.32,71.383C10.303,91.447,6.66,118.424,3.604,143.941c-0.957,7.995-1.915,15.989-2.872,23.985  c-0.563,4.698-1.082,9.689,0.933,13.968c3.786,8.042,16.928,9.045,21.885,1.67c2.442-3.633,2.839-8.232,3.035-12.608  C28.062,137.763,22.188,104.349,26.32,71.383z"/>
                <linearGradient id="SVGID_12_-i1" gradientUnits="userSpaceOnUse" x1="151.3589" y1="358.0219" x2="124.5309" y2="360.4747" gradientTransform="matrix(1 0 0 1 0 -122)">
                    <stop offset="0" style="stop-color:#FFBFB7"/>
                    <stop offset="1" style="stop-color:#FFA29D"/>
                </linearGradient>
                <path fill="url(#SVGID_12_-i1)" d="M152.299,263.141c-1.595-0.004-2.397-2.11-3.596-3.164c-0.914,1.641-3.449,2.256-5.251,1.735  c-1.801-0.521-4.709,0.398-6.108-0.854c-0.606,2.445,0.49,2.639-1.056,4.625c-1.546,1.987-4.457-0.158-5.61-2.397  c-8.888-17.268,4.13-34.646,6.014-54.46c4.233,1.711,9.047,1.938,13.423,0.634c-0.107,9.478-0.214,18.957-0.32,28.435  c-0.033,2.977-0.061,6.004,0.761,8.865c0.822,2.86,2.459,5.431,3.301,8.284C154.699,257.697,155.267,263.15,152.299,263.141z"/>
                <linearGradient id="SVGID_13_-i1" gradientUnits="userSpaceOnUse" x1="127.8483" y1="343.5571" x2="138.5449" y2="235.3535" gradientTransform="matrix(1 0 0 1 0 -122)">
                    <stop offset="0" style="stop-color:#008EFF"/>
                    <stop offset="1" style="stop-color:#0073DC"/>
                </linearGradient>
                <path fill="url(#SVGID_13_-i1)" d="M118.308,66.743c8.256,0.85,15.259,6.927,19.357,14.164s5.761,15.569,7.246,23.757  c7.623,42.048,12.116,85.142,6.598,127.519c-7.365-0.382-14.763-0.13-22.085,0.753c-0.962-44.844-1.923-89.689-2.884-134.532  C126.301,87.258,125.683,75.089,118.308,66.743z"/>
                <linearGradient id="SVGID_14_-i1" gradientUnits="userSpaceOnUse" x1="96.3" y1="247.499" x2="117.286" y2="247.499" gradientTransform="matrix(1 0 0 1 0 -122)">
                    <stop offset="0" style="stop-color:#69B0F5"/>
                    <stop offset="1" style="stop-color:#5BABF2"/>
                </linearGradient>
                <polygon fill="url(#SVGID_14_-i1)" points="106.793,136.022 96.3,125.499 106.793,114.976 117.286,125.499 "/>
                <linearGradient id="SVGID_15_-i1" gradientUnits="userSpaceOnUse" x1="30.753" y1="234.13" x2="51.74" y2="234.13" gradientTransform="matrix(1 0 0 1 0 -122)">
                    <stop offset="0" style="stop-color:#69B0F5"/>
                    <stop offset="1" style="stop-color:#5BABF2"/>
                </linearGradient>
                <polygon fill="url(#SVGID_15_-i1)" points="41.247,122.653 30.753,112.13 41.247,101.607 51.74,112.13 "/>
                <linearGradient id="SVGID_16_-i1" gradientUnits="userSpaceOnUse" x1="111.297" y1="221.8755" x2="125.618" y2="221.8755" gradientTransform="matrix(1 0 0 1 0 -122)">
                    <stop offset="0" style="stop-color:#008EFF"/>
                    <stop offset="1" style="stop-color:#0073DC"/>
                </linearGradient>
                <polygon fill="url(#SVGID_16_-i1)" points="118.458,107.056 111.297,99.875 118.458,92.695 125.618,99.875 "/>
                <linearGradient id="SVGID_17_-i1" gradientUnits="userSpaceOnUse" x1="25.198" y1="248.6125" x2="39.52" y2="248.6125" gradientTransform="matrix(1 0 0 1 0 -122)">
                    <stop offset="0" style="stop-color:#008EFF"/>
                    <stop offset="1" style="stop-color:#0073DC"/>
                </linearGradient>
                <polygon fill="url(#SVGID_17_-i1)" points="32.358,133.793 25.198,126.613 32.358,119.432 39.52,126.613 "/>
                <linearGradient id="SVGID_18_-i1" gradientUnits="userSpaceOnUse" x1="8.534" y1="234.687" x2="22.856" y2="234.687" gradientTransform="matrix(1 0 0 1 0 -122)">
                    <stop offset="0" style="stop-color:#1B236D"/>
                    <stop offset="1" style="stop-color:#0A134F"/>
                </linearGradient>
                <polygon fill="url(#SVGID_18_-i1)" points="15.694,119.868 8.534,112.686 15.694,105.506 22.856,112.686 "/>
                <linearGradient id="SVGID_19_-i1" gradientUnits="userSpaceOnUse" x1="53.527" y1="251.9555" x2="67.848" y2="251.9555" gradientTransform="matrix(1 0 0 1 0 -122)">
                    <stop offset="0" style="stop-color:#1B236D"/>
                    <stop offset="1" style="stop-color:#0A134F"/>
                </linearGradient>
                <polygon fill="url(#SVGID_19_-i1)" points="60.688,137.136 53.527,129.955 60.688,122.775 67.848,129.955 "/>
                <linearGradient id="SVGID_20_-i1" gradientUnits="userSpaceOnUse" x1="127.962" y1="234.687" x2="142.282" y2="234.687" gradientTransform="matrix(1 0 0 1 0 -122)">
                    <stop offset="0" style="stop-color:#1B236D"/>
                    <stop offset="1" style="stop-color:#0A134F"/>
                </linearGradient>
                <polygon fill="url(#SVGID_20_-i1)" points="135.122,119.868 127.962,112.686 135.122,105.506 142.282,112.686 "/>
                <g>
                    <path fill="#FFFFFF" d="M68.557,118.629c-0.142,0-0.285-0.055-0.394-0.163L47.357,97.6c-0.217-0.217-0.217-0.571,0-0.788   s0.569-0.217,0.786,0l20.807,20.866c0.217,0.217,0.217,0.571,0,0.788C68.841,118.574,68.699,118.629,68.557,118.629z"/>
                </g>
                <g>
                    <path fill="#FFFFFF" d="M132.207,128.981c-0.142,0-0.285-0.055-0.394-0.163L99.572,96.487c-0.217-0.217-0.217-0.571,0-0.788   s0.569-0.217,0.786,0l32.241,32.331c0.217,0.217,0.217,0.571,0,0.788C132.49,128.927,132.348,128.981,132.207,128.981z"/>
                </g>
                <g>
                    <path fill="#FFFFFF" d="M20.23,132.555c-0.142,0-0.285-0.055-0.394-0.163L7.639,120.161c-0.217-0.217-0.217-0.571,0-0.788   s0.569-0.217,0.786,0l12.197,12.232c0.217,0.217,0.217,0.571,0,0.788C20.515,132.501,20.372,132.555,20.23,132.555z"/>
                </g>
                <g>
                    <path fill="#FFFFFF" d="M37.196,138.125c-0.142,0-0.285-0.055-0.394-0.163c-0.217-0.217-0.217-0.571,0-0.788l20.807-20.866   c0.217-0.217,0.569-0.217,0.786,0s0.217,0.571,0,0.788l-20.807,20.866C37.48,138.07,37.338,138.125,37.196,138.125z"/>
                </g>
                <g>
                    <path fill="#FFFFFF" d="M92.189,111.945c-0.142,0-0.285-0.055-0.394-0.163c-0.217-0.217-0.217-0.571,0-0.788l20.807-20.866   c0.217-0.217,0.569-0.217,0.786,0s0.217,0.571,0,0.788l-20.807,20.866C92.473,111.89,92.331,111.945,92.189,111.945z"/>
                </g>
                <g>
                    <path fill="#FF4945" d="M90.787,124.49c-0.142,0-0.285-0.055-0.394-0.163c-0.217-0.217-0.217-0.571,0-0.788l13.32-13.358   c0.217-0.217,0.569-0.217,0.786,0s0.217,0.571,0,0.788l-13.32,13.358C91.072,124.435,90.93,124.49,90.787,124.49z"/>
                </g>
                <g>
                    <path fill="#FFFFFF" d="M132.449,133.402c-0.142,0-0.285-0.055-0.394-0.163c-0.217-0.217-0.217-0.571,0-0.788l13.32-13.358   c0.217-0.217,0.569-0.217,0.786,0s0.217,0.571,0,0.788l-13.32,13.358C132.734,133.348,132.591,133.402,132.449,133.402z"/>
                </g>
                <g>
                    <path fill="#FF4945" d="M8.578,132.288c-0.142,0-0.285-0.055-0.394-0.163c-0.217-0.217-0.217-0.571,0-0.788l13.32-13.358   c0.217-0.217,0.569-0.217,0.786,0s0.217,0.571,0,0.788L8.97,132.125C8.862,132.234,8.72,132.288,8.578,132.288z"/>
                </g>
                <ellipse fill="#008EFF" cx="75.443" cy="25.336" rx="6.146" ry="6.859"/>
                <g>
                    <path fill="#008EFF" d="M79.555,23.699c-0.075,0-0.15-0.014-0.222-0.047c-0.281-0.124-0.409-0.452-0.287-0.735   c0.635-1.456,1.952-2.594,3.611-3.119c1.497-0.475,3.049-0.381,4.332,0.246l0.506-0.57c0.206-0.231,0.556-0.252,0.785-0.047   c0.23,0.205,0.251,0.558,0.047,0.787l-1.109,1.248l-0.396-0.241c-1.082-0.657-2.479-0.789-3.83-0.36   c-1.353,0.429-2.421,1.341-2.928,2.505C79.973,23.574,79.769,23.699,79.555,23.699z"/>
                </g>
                <linearGradient id="SVGID_21_-i1" gradientUnits="userSpaceOnUse" x1="31.156" y1="340.507" x2="72.9653" y2="340.507" gradientTransform="matrix(1 0 0 1 0 -122)">
                    <stop offset="0" style="stop-color:#FFBFB7"/>
                    <stop offset="1" style="stop-color:#FFA29D"/>
                </linearGradient>
                <path fill="url(#SVGID_21_-i1)" d="M60.132,217.131c-4.247,5.626-11.168,14.01-15.414,19.636c-3.182-12.47-7.238-20.561-13.562-24.554  c2.325-2.297,4.651-4.594,6.977-6.892c1.516-1.496,2.179-3.161,1.239-5.074c5.071,5.523,12.17,4.879,19.655,4.815  c4.02-0.035,16.804,5.567,13.354,8.125c-3.619,2.683-9.003-1.956-14.554-1.805C58.131,213.22,60.625,216.479,60.132,217.131z"/>
                <linearGradient id="SVGID_22_-i1" gradientUnits="userSpaceOnUse" x1="2.150721e-004" y1="321.9366" x2="48.354" y2="321.9366" gradientTransform="matrix(1 0 0 1 0 -122)">
                    <stop offset="0" style="stop-color:#008EFF"/>
                    <stop offset="1" style="stop-color:#0073DC"/>
                </linearGradient>
                <path fill="url(#SVGID_22_-i1)" d="M0.663,183.244c-0.364-2.16-1.109-6.541-0.3-8.576c1.778-4.477,8.464-3.77,13.229-4.4  c2.704-0.357,6.802,0.046,9.427,0.789c4.975,1.407,4.115,4.729,7.503,10.08c3.155,4.986,6.94,12.526,11.103,16.701  c2.701,2.709,5.401,4.966,6.602,6.47c0.487,0.611-0.45,5.868-2.401,9.63c-5.579,10.757-3.751,6.921-8.252,15.799  c-6.741-8.113-16.26-12.538-23.426-20.278C7.41,202.182,2.309,193.035,0.663,183.244z"/>
                <linearGradient id="SVGID_23_-i1" gradientUnits="userSpaceOnUse" x1="65.4965" y1="577.7086" x2="113.6656" y2="577.7086" gradientTransform="matrix(1 0 0 1 0 -122)">
                    <stop offset="0" style="stop-color:#008EFF"/>
                    <stop offset="1" style="stop-color:#0073DC"/>
                </linearGradient>
                <path fill="url(#SVGID_23_-i1)" d="M111.955,471.832c0.568-0.575,1.149-1.174,1.449-1.927c0.33-0.827,0.288-1.752,0.195-2.638  c-0.778-7.375-4.724-14.145-9.886-19.456s-9.015-7.363-15.451-11.016c-5.621,0-18.308-0.039-22.58-0.378  c-0.445,12.596,0.009,23.171,0.337,35.776C66.132,475.986,107.837,476.002,111.955,471.832z"/>
                <linearGradient id="SVGID_24_-i1" gradientUnits="userSpaceOnUse" x1="72.6122" y1="163.2556" x2="92.449" y2="163.2556" gradientTransform="matrix(1 0 0 1 0 -122)">
                    <stop offset="0" style="stop-color:#1B236D"/>
                    <stop offset="1" style="stop-color:#0A134F"/>
                </linearGradient>
                <path fill="url(#SVGID_24_-i1)" d="M92.324,34.518c-0.467-1.687-0.61-3.117-2.642-3.309c-2.687-0.253-4.868,0.474-6.952,1.625  c-2.809,1.55-5.512,3.939-5.867,4.338c-2.375,2.675-4.271,4.693-4.246,4.687c-0.063,0.099,0.504,2.071,0.806,2.643  c0.892,1.689,1.873,3.332,2.938,4.918c0.488,0.727,1.044,1.483,1.866,1.783c0.783,0.288,1.651,0.104,2.464-0.084  c1.801-0.414,3.603-0.827,5.404-1.241c1.632-0.375,3.425-0.859,4.341-2.264c0.51-0.784,0.662-1.741,0.802-2.666  c0.325-2.142,0.649-4.284,0.973-6.426C92.251,38.563,92.645,35.676,92.324,34.518z M89.392,41.75  c-0.085,0.188-0.18,0.389-0.361,0.49c-0.338,0.186-0.744-0.079-1.013-0.357c-0.692-0.714-1.196-1.607-1.454-2.569  c-0.774,0.004-1.36,0.728-1.621,1.459c-0.262,0.73-0.325,1.531-0.676,2.222c-0.795,1.564-2.876,2.089-4.571,1.651  c-1.696-0.437-3.097-1.599-4.445-2.72c-0.292-0.243-0.617-0.49-0.976-0.577c0.491-0.183,10.694-5.367,14.541-5.433  c0.764,0.017,1.807,0.139,2.359,1.38C90.616,38.557,89.948,40.514,89.392,41.75z"/>
                <linearGradient id="SVGID_25_-i1" gradientUnits="userSpaceOnUse" x1="47.372" y1="142.5479" x2="86.4462" y2="142.5479" gradientTransform="matrix(1 0 0 1 0 -122)">
                    <stop offset="0" style="stop-color:#1B236D"/>
                    <stop offset="1" style="stop-color:#0A134F"/>
                </linearGradient>
                <path fill="url(#SVGID_25_-i1)" d="M86.436,9.694c0.157,1.134-1.511-0.399-4.013,0.019c-7.747,1.295-14.351,3.027-20.648,7.733  c-0.519,0.388-1.052,0.815-1.295,1.417c-0.284,0.7-0.12,1.492,0.051,2.228c0.797,3.437,1.46,5.306,2.414,8.702  c-2.311-0.479-4.471-1.674-5.825,0.265s5.031,14.071-0.083,10.326c-2.38-5.586-4.759-11.172-7.139-16.758  c-1.131-2.655-2.277-5.37-2.494-8.25s0.661-6.004,2.933-7.776c1.636-1.276,3.751-1.701,5.743-2.269  c3.895-1.112,7.57-2.896,11.439-4.098c3.869-1.203,8.102-1.803,11.939-0.504C83.295,2.029,86.561,5.633,86.436,9.694z"/>
                <g>
                    <path fill="#0A134F" d="M63.832,21.491c-0.072,0-0.147-0.014-0.217-0.045C63.332,21.326,63.2,21,63.32,20.715   c0.658-1.553,1.835-3.021,3.596-4.489c1.849-1.54,3.914-2.777,6.138-3.678c2.663-1.077,5.488-1.646,8.22-2.196l4.382-0.882   c0.294-0.06,0.594,0.135,0.655,0.437s-0.135,0.597-0.436,0.657l-4.382,0.882c-2.682,0.54-5.455,1.097-8.022,2.137   c-2.117,0.858-4.084,2.035-5.845,3.5c-1.621,1.352-2.697,2.683-3.284,4.068C64.253,21.364,64.049,21.491,63.832,21.491z"/>
                </g>
                <path id="texture-2_13_-i1" fill="#FFFFFF" d="M41.664,89.031c-0.08-0.04-0.178-0.006-0.218,0.075c-0.04,0.08-0.006,0.178,0.075,0.219  c0.08,0.04,0.178,0.006,0.218-0.075l0,0C41.779,89.169,41.746,89.071,41.664,89.031L41.664,89.031z M24.955,88.229  c-0.03-0.088-0.125-0.135-0.211-0.105l0,0c-0.081,0.025-0.126,0.11-0.101,0.191c0.001,0.007,0.004,0.013,0.008,0.02  c0.027,0.085,0.116,0.132,0.201,0.106C24.937,88.411,24.985,88.316,24.955,88.229L24.955,88.229L24.955,88.229z M33.392,89.181  c-0.002-0.091-0.071-0.168-0.162-0.177c-0.093-0.004-0.173,0.068-0.177,0.163c-0.004,0.094,0.068,0.174,0.162,0.177  C33.306,89.341,33.382,89.272,33.392,89.181z M41.707,68.992c0.018-0.173-0.106-0.327-0.278-0.348  c-0.165-0.026-0.319,0.086-0.346,0.25c-0.001,0.006-0.002,0.011-0.002,0.017c-0.018,0.173,0.106,0.327,0.278,0.348  C41.529,69.282,41.685,69.163,41.707,68.992L41.707,68.992z M40.8,76.525c0.017-0.174-0.109-0.327-0.282-0.343  c-0.169-0.017-0.322,0.105-0.342,0.274c-0.022,0.171,0.097,0.326,0.266,0.349l0,0C40.616,76.818,40.772,76.697,40.8,76.525z   M39.883,84.068c0.021-0.169-0.097-0.324-0.267-0.346c-0.003,0-0.007-0.001-0.01-0.001c-0.165-0.026-0.319,0.086-0.346,0.25  c-0.001,0.006-0.002,0.011-0.002,0.017c-0.014,0.174,0.107,0.33,0.279,0.359C39.709,84.364,39.862,84.24,39.883,84.068z   M55.706,77.136c-0.152-0.08-0.339-0.021-0.419,0.133c-0.08,0.153-0.021,0.34,0.132,0.42c0.149,0.078,0.334,0.022,0.415-0.125  C55.914,77.41,55.857,77.221,55.706,77.136L55.706,77.136z M51.987,83.752c-0.152-0.08-0.339-0.021-0.419,0.133  c-0.08,0.153-0.021,0.34,0.132,0.42c0.149,0.078,0.334,0.022,0.415-0.125C52.195,84.027,52.137,83.837,51.987,83.752L51.987,83.752z   M27.12,73.584c-0.05-0.166-0.224-0.262-0.39-0.213c-0.163,0.043-0.259,0.213-0.215,0.377c0,0.001,0,0.002,0,0.002  c0.034,0.164,0.195,0.268,0.357,0.233c0.008-0.002,0.016-0.003,0.024-0.006C27.06,73.923,27.158,73.754,27.12,73.584z   M29.152,80.905c-0.052-0.165-0.222-0.263-0.39-0.225c-0.166,0.05-0.26,0.224-0.212,0.391c0.047,0.166,0.219,0.263,0.384,0.216  c0.002,0,0.004-0.001,0.006-0.001c0.163-0.043,0.259-0.213,0.216-0.376C29.153,80.907,29.152,80.906,29.152,80.905z M31.182,88.212  c-0.041-0.162-0.202-0.26-0.364-0.219c-0.004,0.001-0.01,0.002-0.013,0.004c-0.167,0.04-0.269,0.21-0.229,0.376  c0.001,0.006,0.002,0.01,0.003,0.016c0.048,0.167,0.222,0.264,0.388,0.216c0.167-0.048,0.264-0.223,0.216-0.389  C31.183,88.214,31.182,88.213,31.182,88.212z M62.076,80.963c-0.126-0.087-0.298-0.057-0.388,0.068  c-0.088,0.125-0.058,0.3,0.068,0.389s0.299,0.058,0.388-0.068l0,0C62.23,81.226,62.201,81.053,62.076,80.963z M34.408,75.032  c-0.033-0.154-0.18-0.254-0.335-0.23c-0.147,0.026-0.246,0.165-0.221,0.312c0.001,0.004,0.002,0.008,0.003,0.012  c0.023,0.153,0.167,0.256,0.318,0.231c0.002,0,0.003-0.001,0.006-0.001C34.327,75.325,34.428,75.184,34.408,75.032L34.408,75.032z   M35.583,81.693c-0.029-0.151-0.173-0.248-0.322-0.22c-0.147,0.026-0.246,0.165-0.221,0.312c0.001,0.004,0.002,0.008,0.003,0.012  c0.023,0.153,0.167,0.256,0.318,0.233c0.002,0,0.003-0.001,0.006-0.001C35.517,81.994,35.613,81.846,35.583,81.693L35.583,81.693z   M36.773,88.377c-0.023-0.153-0.167-0.256-0.318-0.233c-0.002,0-0.003,0.001-0.006,0.001c-0.143,0.02-0.244,0.154-0.225,0.298  c0.001,0.009,0.003,0.018,0.006,0.027c0.023,0.153,0.167,0.256,0.318,0.233c0.002,0,0.003-0.001,0.006-0.001  C36.701,88.668,36.798,88.526,36.773,88.377L36.773,88.377z M48.727,78.852c0.028-0.152-0.069-0.299-0.22-0.33  c-0.149-0.033-0.297,0.06-0.329,0.21c-0.03,0.152,0.061,0.302,0.209,0.342C48.541,79.105,48.691,79.006,48.727,78.852L48.727,78.852  z M47.268,85.473c0.037-0.144-0.049-0.291-0.192-0.328c-0.004-0.001-0.011-0.002-0.016-0.004c-0.149-0.033-0.297,0.06-0.329,0.21  c-0.03,0.152,0.061,0.302,0.209,0.342C47.09,85.722,47.237,85.625,47.268,85.473L47.268,85.473z M23.182,82.982  c-0.077-0.125-0.238-0.165-0.364-0.089c-0.006,0.003-0.01,0.006-0.014,0.009c-0.131,0.079-0.175,0.251-0.096,0.382  c0.002,0.003,0.003,0.006,0.006,0.008c0.088,0.126,0.259,0.161,0.389,0.079c0.128-0.08,0.166-0.251,0.086-0.379  C23.188,82.989,23.185,82.987,23.182,82.982L23.182,82.982z M26.828,88.696c-0.085-0.13-0.257-0.171-0.39-0.09  c-0.129,0.088-0.165,0.264-0.077,0.394c0.082,0.124,0.248,0.162,0.377,0.086c0.13-0.077,0.176-0.246,0.099-0.377  C26.834,88.705,26.831,88.699,26.828,88.696L26.828,88.696z M62.575,73.784c0.029-0.176-0.083-0.345-0.258-0.384  c-0.175-0.037-0.345,0.074-0.383,0.248c-0.031,0.177,0.082,0.347,0.258,0.384C62.366,74.067,62.538,73.957,62.575,73.784  L62.575,73.784z M60.971,81.444c0.038-0.175-0.073-0.346-0.247-0.384c-0.173-0.038-0.345,0.074-0.383,0.248  c-0.038,0.175,0.073,0.346,0.247,0.384C60.762,81.729,60.933,81.617,60.971,81.444L60.971,81.444z M30.246,79.647  c-0.103-0.148-0.305-0.191-0.458-0.095c-0.147,0.104-0.182,0.308-0.078,0.455c0.1,0.143,0.294,0.181,0.44,0.088  C30.296,79.995,30.338,79.799,30.246,79.647L30.246,79.647z M34.515,86.196c-0.1-0.146-0.296-0.19-0.447-0.096  c-0.15,0.097-0.193,0.298-0.096,0.448c0.097,0.151,0.297,0.194,0.447,0.096C34.566,86.545,34.608,86.347,34.515,86.196  L34.515,86.196z M47.048,77.003c-0.041-0.173-0.208-0.284-0.383-0.26c-0.172,0.039-0.282,0.209-0.248,0.382  c0.029,0.173,0.191,0.291,0.366,0.262c0.002,0,0.004-0.001,0.007-0.001C46.967,77.353,47.081,77.182,47.048,77.003  C47.048,77.004,47.048,77.003,47.048,77.003L47.048,77.003z M48.494,84.701c-0.034-0.177-0.205-0.293-0.381-0.261c0,0,0,0-0.001,0  c-0.17,0.033-0.282,0.2-0.249,0.37l0,0c0.032,0.174,0.199,0.29,0.373,0.258C48.408,85.04,48.522,84.874,48.494,84.701L48.494,84.701  z M51.898,74.729c-0.03-0.174-0.197-0.291-0.37-0.261c-0.175,0.03-0.29,0.197-0.26,0.372c0.03,0.169,0.188,0.285,0.358,0.262  C51.804,75.074,51.925,74.908,51.898,74.729L51.898,74.729z M53.02,82.445c-0.029-0.178-0.195-0.299-0.373-0.272  c-0.171,0.029-0.291,0.19-0.272,0.362c0.031,0.178,0.195,0.302,0.373,0.283C52.925,82.786,53.042,82.621,53.02,82.445L53.02,82.445z   M38.322,83.698c-0.096-0.152-0.295-0.2-0.448-0.108c-0.15,0.091-0.199,0.288-0.108,0.438c0.082,0.153,0.272,0.21,0.425,0.127  c0.004-0.002,0.008-0.004,0.012-0.008c0.156-0.087,0.211-0.284,0.123-0.44C38.326,83.704,38.324,83.7,38.322,83.698L38.322,83.698z"/>
            </g>
        </g>
    </g>
    <!-- ITEM 2 -->
    <g transform="translate(789.0 127.0) rotate(0.0 158.0 182.5) scale(1.1806772454351506 1.177104194683359)">
        <g transform="translate(-0.0 -0.0)">
            <g clip-path="url(#clipPathId-collage-item-2)">
                <defs>
                    <clipPath id="clipPathId-collage-item-2">
                        <rect x="0.0" y="0.0" width="267.643" height="310.083"/>
                    </clipPath>
                </defs>
                <g>
                    <path fill="#d5d5d5" d="M235.407,310.083c-0.811,0-1.478-0.646-1.499-1.461c-0.369-14.025-6.037-27.984-15.55-38.298   c-3.38-3.664-7.3-6.962-11.091-10.151c-3.573-3.005-7.268-6.113-10.574-9.568c-4.907-5.13-12.858-15.526-10.974-27.522   c0.301-1.918,1.336-3.9,2.812-5.815c-6.676-2.032-12.947-6.884-13.791-13.544c-0.33-2.604,0.208-5.047,1.367-7.254   c-6.657-2.407-12.715-5.459-17.247-8.743c-3.677-2.666-6.449-5.545-8.248-8.536c-33.132,4.522-60.935,3.05-90.83-9.833   c-20.301-8.749-38.179-25.013-49.05-44.622C-0.934,103.69-3.173,81.37,4.428,61.886C20.031,21.89,67.75,8.191,94.806,3.586   C156.842-6.975,212.434,6.043,247.328,39.3c0.6,0.571,0.623,1.521,0.051,2.121c-0.572,0.6-1.521,0.622-2.121,0.051   C211.057,8.874,156.402-3.854,95.309,6.543C68.878,11.042,22.288,24.356,7.223,62.976c-15.835,40.594,15.616,87.193,53.747,103.625   c28.979,12.488,56.063,14.029,88.241,9.748c-0.586-1.511-0.928-3.041-1.019-4.579c-0.762-12.94,18.329-22.098,28.531-25.132   c5.764-1.715,27.332-5.568,33.27-2.888c5.263,2.374,6.063,5.606,5.809,7.9c-1.047,9.418-21.2,19.425-34.613,22.177   c-9.561,1.961-18.621,3.626-27.304,4.898c1.878,2.677,4.442,4.907,6.738,6.57c4.496,3.259,10.549,6.281,17.171,8.63   c3.221-3.986,8.512-6.936,13.965-8.289c5.9-1.464,28.952-5.714,33.952,0.246c0.833,0.994,1.587,2.719,0.442,5.295   c-2.004,4.51-6.088,7.621-12.137,9.248c-9.79,2.634-23.133,0.904-35.049-2.975c-1.028,1.803-1.516,3.788-1.249,5.895   c0.734,5.799,6.848,9.956,13.021,11.415c4.383-4.432,10.584-8.126,14.426-9.206c2.233-0.628,3.816-0.418,4.7,0.625   c0.822,0.969,0.82,2.357-0.007,4.126c-2.836,6.067-9.697,9.035-17.912,7.748c-0.053-0.008-0.107-0.017-0.16-0.025   c-1.668,1.894-2.833,3.813-3.102,5.519c-1.685,10.721,5.654,20.255,10.178,24.983c3.193,3.338,6.825,6.394,10.337,9.348   c3.863,3.249,7.857,6.609,11.365,10.413c9.999,10.84,15.956,25.511,16.344,40.253c0.022,0.828-0.632,1.517-1.46,1.538   C235.433,310.083,235.42,310.083,235.407,310.083z M194.518,215.321c5.929,0.373,10.576-1.911,12.621-6.285   c0.186-0.397,0.271-0.672,0.309-0.848c-0.799-0.054-2.965,0.498-6.427,2.484C198.799,211.947,196.513,213.568,194.518,215.321z    M180.835,194.944c11.119,3.506,23.372,5.015,32.4,2.584c5.132-1.38,8.556-3.927,10.175-7.569c0.624-1.404,0.187-1.926,0-2.148   c-2.941-3.507-20.283-1.904-30.931,0.738C188.011,189.657,183.658,191.926,180.835,194.944z M203.425,145.813   c-7.64,0-20.266,2.039-25.847,3.699c-10.94,3.254-26.996,11.819-26.391,22.081c0.089,1.522,0.484,2.97,1.091,4.331   c8.981-1.283,18.366-2.998,28.307-5.037c14.949-3.066,31.518-13.125,32.234-19.569c0.079-0.707,0.318-2.858-4.06-4.834   C207.712,146.013,205.811,145.813,203.425,145.813z"/>
                </g>
                <path fill="#d5d5d5" d="M48.253,145.16h195.013c13.463,0,24.377-10.914,24.377-24.377V41.006c0-13.463-10.914-24.377-24.377-24.377  H48.253c-13.463,0-24.377,10.914-24.377,24.377v79.778C23.877,134.246,34.791,145.16,48.253,145.16z"/>
            </g>
        </g>
    </g>
    <!-- ITEM 3 -->
    <g transform="translate(739.0 159.0) rotate(353.29873495373556 -136.5 166.5) scale(-1.0658982828495795 1.0624144564936493)">
        <g transform="translate(-0.0 -0.0)">
            <g clip-path="url(#clipPathId-collage-item-3)">
                <defs>
                    <clipPath id="clipPathId-collage-item-3">
                        <rect x="0.0" y="0.0" width="256.122" height="313.437"/>
                    </clipPath>
                </defs>
                <g>
                    <path fill="#d5d5d5" d="M235.407,313.437c-0.811,0-1.478-0.646-1.499-1.461c-0.369-14.025-6.037-27.984-15.55-38.298   c-3.38-3.664-7.3-6.962-11.091-10.151c-3.573-3.005-7.268-6.113-10.574-9.568c-4.907-5.13-12.858-15.526-10.974-27.522   c0.301-1.918,1.336-3.9,2.812-5.815c-6.676-2.032-12.947-6.884-13.791-13.544c-0.33-2.604,0.208-5.047,1.367-7.254   c-6.657-2.407-12.715-5.459-17.247-8.743c-3.677-2.666-6.449-5.545-8.248-8.536c-33.132,4.523-60.935,3.049-90.83-9.833   c-20.301-8.749-38.179-25.013-49.05-44.622C-0.934,107.044-3.173,84.724,4.428,65.24C20.031,25.244,67.75,11.545,94.806,6.94   C156.84-3.622,212.434,9.397,247.328,42.654c0.6,0.571,0.623,1.521,0.051,2.121c-0.572,0.6-1.522,0.621-2.121,0.051   C211.057,12.227,156.401-0.501,95.309,9.897C68.878,14.396,22.288,27.71,7.223,66.33c-15.835,40.594,15.616,87.193,53.747,103.625   c28.979,12.488,56.062,14.029,88.241,9.748c-0.586-1.511-0.928-3.041-1.019-4.579c-0.762-12.94,18.329-22.098,28.531-25.132   c5.764-1.715,27.332-5.568,33.27-2.888c5.263,2.374,6.063,5.606,5.809,7.9c-1.047,9.418-21.2,19.425-34.613,22.177   c-9.561,1.961-18.621,3.626-27.304,4.898c1.878,2.677,4.442,4.907,6.738,6.57c4.496,3.259,10.549,6.281,17.171,8.63   c3.221-3.986,8.512-6.936,13.965-8.289c5.9-1.464,28.952-5.714,33.952,0.246c0.833,0.994,1.587,2.719,0.442,5.295   c-2.004,4.51-6.088,7.621-12.137,9.248c-9.789,2.633-23.133,0.904-35.049-2.975c-1.028,1.803-1.516,3.788-1.249,5.895   c0.734,5.799,6.848,9.956,13.021,11.415c4.383-4.432,10.584-8.126,14.426-9.206c2.233-0.628,3.816-0.417,4.7,0.625   c0.822,0.969,0.82,2.357-0.007,4.126c-2.835,6.068-9.697,9.039-17.912,7.748c-0.053-0.008-0.107-0.017-0.16-0.025   c-1.668,1.894-2.833,3.813-3.102,5.519c-1.685,10.721,5.654,20.255,10.178,24.983c3.193,3.338,6.825,6.394,10.337,9.348   c3.863,3.249,7.857,6.609,11.365,10.413c9.999,10.84,15.956,25.511,16.344,40.253c0.022,0.828-0.632,1.517-1.46,1.538   C235.433,313.437,235.42,313.437,235.407,313.437z M194.518,218.675c5.927,0.363,10.576-1.911,12.621-6.285   c0.186-0.397,0.271-0.672,0.309-0.848c-0.813-0.04-2.965,0.498-6.427,2.484C198.799,215.301,196.513,216.922,194.518,218.675z    M180.835,198.298c11.119,3.506,23.373,5.016,32.4,2.584c5.132-1.38,8.556-3.927,10.175-7.569c0.624-1.404,0.187-1.926,0-2.148   c-2.941-3.507-20.283-1.904-30.931,0.738C188.011,193.011,183.658,195.28,180.835,198.298z M203.425,149.167   c-7.64,0-20.266,2.039-25.847,3.699c-10.94,3.254-26.996,11.819-26.391,22.081c0.089,1.522,0.484,2.97,1.091,4.331   c8.981-1.283,18.366-2.998,28.307-5.037c14.949-3.066,31.518-13.125,32.234-19.569c0.079-0.707,0.318-2.858-4.06-4.834   C207.712,149.367,205.811,149.167,203.425,149.167z"/>
                </g>
                <path fill="#d5d5d5" d="M255.874,64.597c-4.299-42.688-63.423-71.043-132.057-63.333S3.03,49.832,7.329,92.52  s63.423,71.043,132.057,63.333C208.02,148.142,260.173,107.285,255.874,64.597z"/>
            </g>
        </g>
    </g>
</svg>