<svg width="45" height="45" viewBox="0 0 45 45" fill="none" xmlns="http://www.w3.org/2000/svg">
<circle cx="22.5" cy="22.5" r="22.5" fill="#F7685B" fill-opacity="0.3"/>
<path d="M30 32.0001H16C15.4477 32.0001 15 31.5524 15 31.0001V21.3571C15.0155 21.112 15.1196 20.881 15.293 20.7071L22.293 13.7071C22.4806 13.5193 22.7351 13.4138 23.0005 13.4138C23.2659 13.4138 23.5204 13.5193 23.708 13.7071L30.708 20.7071C30.8957 20.8944 31.0009 21.1489 31 21.4141V31.0001C31 31.5524 30.5523 32.0001 30 32.0001ZM23 15.8281L17 21.8281V30.0001H29V21.8281L23 15.8281ZM21.5 28.5591L18.794 25.8591L20.2 24.4411L21.5 25.7331L25.8 21.4411L27.212 22.8571L21.5 28.5581V28.5591Z" fill="#F7685B"/>
</svg>
