<svg width="45" height="44" viewBox="0 0 45 44" fill="none" xmlns="http://www.w3.org/2000/svg">
<ellipse cx="22.5" cy="22" rx="22.5" ry="22" fill="#5C7DEE" fill-opacity="0.3"/>
<path d="M28.5833 31.8333H16.0833C14.9327 31.8333 14 30.9006 14 29.75V13.0833C14 11.9327 14.9327 11 16.0833 11H23.375C23.3864 11.0005 23.3976 11.0026 23.4083 11.0063C23.4185 11.0094 23.429 11.0115 23.4396 11.0125C23.5314 11.0184 23.6221 11.0362 23.7094 11.0656L23.7385 11.075C23.7622 11.083 23.7851 11.0928 23.8073 11.1042C23.9208 11.1546 24.0242 11.2252 24.1125 11.3125L30.3625 17.5625C30.4498 17.6508 30.5204 17.7542 30.5708 17.8677C30.5813 17.8906 30.5885 17.9146 30.5969 17.9385L30.6063 17.9656C30.6353 18.0525 30.6525 18.1429 30.6573 18.2344C30.6589 18.2439 30.6614 18.2534 30.6646 18.2625C30.6664 18.2721 30.6671 18.2819 30.6668 18.2917V29.75C30.6668 30.9006 29.7339 31.8333 28.5833 31.8333ZM16.0833 13.0833V29.75H28.5833V19.3333H23.375C22.7997 19.3333 22.3333 18.867 22.3333 18.2917V13.0833H16.0833ZM24.4167 14.5563V17.25H27.1104L24.4167 14.5563Z" fill="#5C7DEE"/>
</svg>
