<svg width="106" height="37" viewBox="0 0 106 37" fill="none" xmlns="http://www.w3.org/2000/svg">
<path d="M5.498 36.19C3.92733 36.19 2.67333 35.62 1.736 34.48C0.798667 33.34 0.33 31.8453 0.33 29.996C0.33 27.9693 0.798667 26.0567 1.736 24.258C2.67333 22.434 3.91467 20.9773 5.46 19.888C7.03067 18.7733 8.69 18.216 10.438 18.216C10.9953 18.216 11.3627 18.33 11.54 18.558C11.7427 18.7607 11.9073 19.1407 12.034 19.698C12.566 19.5967 13.1233 19.546 13.706 19.546C14.9473 19.546 15.568 19.9893 15.568 20.876C15.568 21.408 15.378 22.6747 14.998 24.676C14.4153 27.5893 14.124 29.616 14.124 30.756C14.124 31.136 14.2127 31.44 14.39 31.668C14.5927 31.896 14.846 32.01 15.15 32.01C15.6313 32.01 16.214 31.706 16.898 31.098C17.582 30.4647 18.5067 29.4513 19.672 28.058C19.976 27.7033 20.318 27.526 20.698 27.526C21.0273 27.526 21.2807 27.678 21.458 27.982C21.6607 28.286 21.762 28.704 21.762 29.236C21.762 30.2493 21.5213 31.0347 21.04 31.592C20.0013 32.884 18.8993 33.9733 17.734 34.86C16.5687 35.7467 15.4413 36.19 14.352 36.19C13.516 36.19 12.7433 35.9113 12.034 35.354C11.35 34.7713 10.8307 33.986 10.476 32.998C9.15867 35.126 7.49933 36.19 5.498 36.19ZM6.866 32.352C7.42333 32.352 7.95533 32.0227 8.462 31.364C8.96867 30.7053 9.336 29.8313 9.564 28.742L10.97 21.75C9.906 21.7753 8.918 22.1807 8.006 22.966C7.11933 23.726 6.41 24.7393 5.878 26.006C5.346 27.2727 5.08 28.6153 5.08 30.034C5.08 30.8193 5.232 31.402 5.536 31.782C5.86533 32.162 6.30867 32.352 6.866 32.352ZM47.5156 27.526C47.8449 27.526 48.0983 27.678 48.2756 27.982C48.4783 28.286 48.5796 28.704 48.5796 29.236C48.5796 30.2493 48.3389 31.0347 47.8576 31.592C46.7683 32.9347 45.5776 34.0367 44.2856 34.898C42.9936 35.7593 41.5116 36.19 39.8396 36.19C36.7489 36.19 34.5956 34.898 33.3796 32.314C32.7209 33.378 31.8469 34.29 30.7576 35.05C29.6683 35.81 28.5029 36.19 27.2616 36.19C24.8549 36.19 23.0816 35.2147 21.9416 33.264C20.8269 31.288 20.2696 28.628 20.2696 25.284C20.2696 24.0427 20.3329 22.662 20.4596 21.142H18.9016C18.1416 21.142 17.6223 21.0027 17.3436 20.724C17.0903 20.4453 16.9636 20.002 16.9636 19.394C16.9636 17.9753 17.5336 17.266 18.6736 17.266H20.9916C21.4729 14.5807 22.1443 12.1487 23.0056 9.97C23.8669 7.79133 24.9056 6.056 26.1216 4.764C27.3376 3.472 28.6549 2.826 30.0736 2.826C31.1376 2.826 31.9736 3.29467 32.5816 4.232C33.1896 5.16933 33.4936 6.34733 33.4936 7.766C33.4936 11.338 32.1129 14.5047 29.3516 17.266H32.8096C33.2909 14.5807 33.9623 12.1487 34.8236 9.97C35.6849 7.79133 36.7236 6.056 37.9396 4.764C39.1556 3.472 40.4729 2.826 41.8916 2.826C42.9556 2.826 43.7916 3.29467 44.3996 4.232C45.0076 5.16933 45.3116 6.34733 45.3116 7.766C45.3116 11.338 43.9309 14.5047 41.1696 17.266H44.6276C45.0329 17.266 45.3243 17.3547 45.5016 17.532C45.6789 17.7093 45.7676 18.0387 45.7676 18.52C45.7676 20.268 44.3363 21.142 41.4736 21.142H36.8756C36.7996 22.358 36.7616 23.5993 36.7616 24.866C36.7616 27.5007 37.0656 29.35 37.6736 30.414C38.3069 31.478 39.2949 32.01 40.6376 32.01C41.7269 32.01 42.6896 31.6807 43.5256 31.022C44.3616 30.3633 45.3496 29.3753 46.4896 28.058C46.7936 27.7033 47.1356 27.526 47.5156 27.526ZM29.0476 6.474C28.6676 6.474 28.2369 6.95533 27.7556 7.918C27.2996 8.85533 26.8563 10.1727 26.4256 11.87C26.0203 13.542 25.6783 15.404 25.3996 17.456C26.8943 16.164 28.0089 14.72 28.7436 13.124C29.5036 11.5027 29.8836 10.0333 29.8836 8.716C29.8836 7.22133 29.6049 6.474 29.0476 6.474ZM40.8656 6.474C40.4856 6.474 40.0549 6.95533 39.5736 7.918C39.1176 8.85533 38.6743 10.1727 38.2436 11.87C37.8383 13.542 37.4963 15.404 37.2176 17.456C38.7123 16.164 39.8269 14.72 40.5616 13.124C41.3216 11.5027 41.7016 10.0333 41.7016 8.716C41.7016 7.22133 41.4229 6.474 40.8656 6.474ZM28.0596 32.01C28.8196 32.01 29.5796 31.6553 30.3396 30.946C31.0996 30.2367 31.7456 29.3627 32.2776 28.324C32.1509 27.5387 32.0876 26.5253 32.0876 25.284C32.0876 24.0427 32.1509 22.662 32.2776 21.142H25.0576C24.9816 22.358 24.9436 23.5993 24.9436 24.866C24.9436 27.4247 25.2096 29.2613 25.7416 30.376C26.2989 31.4653 27.0716 32.01 28.0596 32.01ZM62.4517 27.526C62.781 27.526 63.0344 27.678 63.2117 27.982C63.4144 28.286 63.5157 28.704 63.5157 29.236C63.5157 30.2493 63.275 31.0347 62.7937 31.592C61.8564 32.732 60.5264 33.7833 58.8037 34.746C57.1064 35.7087 55.2824 36.19 53.3317 36.19C50.6717 36.19 48.607 35.468 47.1377 34.024C45.6684 32.58 44.9337 30.604 44.9337 28.096C44.9337 26.348 45.301 24.7267 46.0357 23.232C46.7704 21.712 47.7837 20.5087 49.0757 19.622C50.393 18.7353 51.875 18.292 53.5217 18.292C54.991 18.292 56.169 18.7353 57.0557 19.622C57.9424 20.4833 58.3857 21.6613 58.3857 23.156C58.3857 24.904 57.7524 26.4113 56.4857 27.678C55.2444 28.9193 53.129 29.9073 50.1397 30.642C50.773 31.8073 51.9764 32.39 53.7497 32.39C54.8897 32.39 56.1817 31.9973 57.6257 31.212C59.095 30.4013 60.3617 29.35 61.4257 28.058C61.7297 27.7033 62.0717 27.526 62.4517 27.526ZM52.8757 22.016C51.9384 22.016 51.1404 22.5607 50.4817 23.65C49.8484 24.7393 49.5317 26.0567 49.5317 27.602V27.678C51.0264 27.3233 52.2044 26.7913 53.0657 26.082C53.927 25.3727 54.3577 24.5493 54.3577 23.612C54.3577 23.1307 54.2184 22.7507 53.9397 22.472C53.6864 22.168 53.3317 22.016 52.8757 22.016ZM63.1197 36.19C62.157 36.19 61.473 35.6833 61.0677 34.67C60.6877 33.6567 60.4977 32.0353 60.4977 29.806C60.4977 26.5127 60.9663 23.384 61.9037 20.42C62.1317 19.6853 62.499 19.1533 63.0057 18.824C63.5377 18.4693 64.2723 18.292 65.2097 18.292C65.7163 18.292 66.071 18.3553 66.2737 18.482C66.4763 18.6087 66.5777 18.8493 66.5777 19.204C66.5777 19.6093 66.3877 20.5213 66.0077 21.94C65.7543 22.9533 65.5517 23.84 65.3997 24.6C65.2477 25.36 65.121 26.2973 65.0197 27.412C65.8557 25.2333 66.793 23.46 67.8317 22.092C68.8703 20.724 69.8837 19.7487 70.8717 19.166C71.885 18.5833 72.8097 18.292 73.6457 18.292C75.2923 18.292 76.1157 19.1153 76.1157 20.762C76.1157 21.75 75.837 23.536 75.2797 26.12C74.7983 28.324 74.5577 29.7807 74.5577 30.49C74.5577 31.5033 74.925 32.01 75.6597 32.01C76.1663 32.01 76.7617 31.706 77.4457 31.098C78.155 30.4647 79.0923 29.4513 80.2577 28.058C80.5617 27.7033 80.9037 27.526 81.2837 27.526C81.613 27.526 81.8663 27.678 82.0437 27.982C82.2463 28.286 82.3477 28.704 82.3477 29.236C82.3477 30.2493 82.107 31.0347 81.6257 31.592C80.5363 32.9347 79.3583 34.0367 78.0917 34.898C76.8503 35.7593 75.4317 36.19 73.8357 36.19C72.5437 36.19 71.5683 35.8227 70.9097 35.088C70.251 34.328 69.9217 33.2387 69.9217 31.82C69.9217 31.1107 70.099 29.844 70.4537 28.02C70.783 26.424 70.9477 25.322 70.9477 24.714C70.9477 24.3087 70.8083 24.106 70.5297 24.106C70.2003 24.106 69.7317 24.5367 69.1237 25.398C68.541 26.234 67.933 27.3487 67.2997 28.742C66.6917 30.1353 66.1977 31.6047 65.8177 33.15C65.539 34.3407 65.2097 35.1513 64.8297 35.582C64.475 35.9873 63.905 36.19 63.1197 36.19ZM93.1052 27.526C93.3839 29.6033 93.7892 31.6553 94.3212 33.682C94.4226 34.0113 94.4732 34.3533 94.4732 34.708C94.4732 35.848 93.7766 36.418 92.3832 36.418C91.5979 36.418 90.9899 36.2027 90.5592 35.772C90.1539 35.3413 89.7739 34.5307 89.4192 33.34L89.3812 33.188C88.4186 34.3787 87.5446 35.1767 86.7592 35.582C85.9992 35.9873 85.1126 36.19 84.0992 36.19C82.5539 36.19 81.2746 35.62 80.2612 34.48C79.2732 33.3147 78.7792 31.8073 78.7792 29.958C78.7792 27.9313 79.2099 26.0567 80.0712 24.334C80.9326 22.6113 82.1106 21.2053 83.6052 20.116C85.0999 19.0013 86.7719 18.33 88.6212 18.102C89.1026 13.314 90.0146 9.14667 91.3572 5.6C92.7252 2.05333 94.5366 0.279998 96.7912 0.279998C97.8806 0.279998 98.7799 0.773998 99.4892 1.762C100.224 2.75 100.591 4.24466 100.591 6.246C100.591 9.03267 99.9072 12.288 98.5392 16.012C97.1712 19.736 95.3599 23.574 93.1052 27.526ZM96.3732 4.004C95.6386 4.004 94.9419 5.87866 94.2832 9.628C93.6499 13.3773 93.2192 17.456 92.9912 21.864C95.8032 15.784 97.2092 10.844 97.2092 7.044C97.2092 6.08133 97.1206 5.334 96.9432 4.802C96.7912 4.27 96.6012 4.004 96.3732 4.004ZM85.4292 32.352C85.9359 32.352 86.4172 32.162 86.8732 31.782C87.3546 31.402 87.9626 30.6673 88.6972 29.578C88.4439 27.7287 88.3172 25.816 88.3172 23.84C88.3172 23.0547 88.3299 22.4467 88.3552 22.016C86.9619 22.4213 85.8092 23.346 84.8972 24.79C83.9852 26.234 83.5292 27.83 83.5292 29.578C83.5292 31.4273 84.1626 32.352 85.4292 32.352ZM102.157 36.19C101.042 36.19 100.194 35.886 99.6109 35.278C99.0536 34.67 98.7749 33.872 98.7749 32.884C98.7749 31.744 99.0916 30.832 99.7249 30.148C100.384 29.464 101.296 29.122 102.461 29.122C103.576 29.122 104.412 29.4007 104.969 29.958C105.552 30.49 105.843 31.288 105.843 32.352C105.843 33.5173 105.514 34.4547 104.855 35.164C104.196 35.848 103.297 36.19 102.157 36.19Z" fill="url(#paint0_linear)"/>
<defs>
<linearGradient id="paint0_linear" x1="1.725" y1="24.86" x2="158.412" y2="24.86" gradientUnits="userSpaceOnUse">
<stop stop-color="#1D2B64"/>
<stop offset="1" stop-color="#F8CDDA"/>
</linearGradient>
</defs>
</svg>
