<svg width="24" height="24" viewBox="0 0 24 24" fill="none" xmlns="http://www.w3.org/2000/svg">
<circle cx="12" cy="12" r="12" fill="#0D95E7" fill-opacity="0.3"/>
<path d="M17.2502 9.66675C16.4043 9.66675 15.9318 10.5067 16.1243 11.1309L14.0535 13.2076C13.8785 13.1551 13.6218 13.1551 13.4468 13.2076L11.9593 11.7201C12.1577 11.0959 11.6852 10.2501 10.8335 10.2501C9.98766 10.2501 9.50933 11.0901 9.70766 11.7201L7.04766 14.3742C6.4235 14.1817 5.5835 14.6542 5.5835 15.5001C5.5835 16.1417 6.1085 16.6667 6.75016 16.6667C7.596 16.6667 8.0685 15.8267 7.876 15.2026L10.5302 12.5426C10.7052 12.5951 10.9618 12.5951 11.1368 12.5426L12.6243 14.0301C12.426 14.6542 12.8985 15.5001 13.7502 15.5001C14.596 15.5001 15.0743 14.6601 14.876 14.0301L16.9527 11.9592C17.5768 12.1517 18.4168 11.6792 18.4168 10.8334C18.4168 10.1917 17.8918 9.66675 17.2502 9.66675Z" fill="#0D95E7"/>
<path d="M13.75 10.25L14.2983 9.0425L15.5 8.5L14.2983 7.9575L13.75 6.75L13.2133 7.9575L12 8.5L13.2133 9.0425L13.75 10.25Z" fill="#0D95E7"/>
<path d="M7.04183 11.4167L7.3335 10.25L8.50016 9.95833L7.3335 9.66667L7.04183 8.5L6.75016 9.66667L5.5835 9.95833L6.75016 10.25L7.04183 11.4167Z" fill="#0D95E7"/>
</svg>
