<svg width="45" height="45" viewBox="0 0 45 45" fill="none" xmlns="http://www.w3.org/2000/svg">
<circle cx="22.5" cy="22.5" r="22.5" fill="#D4EDE5"/>
<path d="M22 18C22 20.2091 20.2091 22 18 22C15.7909 22 14 20.2091 14 18C14 15.7909 15.7909 14 18 14C20.2091 14 22 15.7909 22 18ZM20 18C20 16.8954 19.1046 16 18 16C16.8954 16 16 16.8954 16 18C16 19.1046 16.8954 20 18 20C19.1046 20 20 19.1046 20 18Z" fill="#71C3A8"/>
<path d="M32 22.5C32 24.433 30.433 26 28.5 26C26.567 26 25 24.433 25 22.5C25 20.567 26.567 19 28.5 19C30.433 19 32 20.567 32 22.5ZM30 22.5C30 21.6716 29.3284 21 28.5 21C27.6716 21 27 21.6716 27 22.5C27 23.3284 27.6716 24 28.5 24C29.3284 24 30 23.3284 30 22.5Z" fill="#71C3A8"/>
<path d="M21 32V28C21 26.3431 19.6569 25 18 25C16.3431 25 15 26.3431 15 28V32H13V28C13 25.2386 15.2386 23 18 23C20.7614 23 23 25.2386 23 28V32H21Z" fill="#71C3A8"/>
<path d="M31 31.5V32H33V31.5C33 29.0147 30.9853 27 28.5 27C26.0147 27 24 29.0147 24 31.5V32H26V31.5C26 30.1193 27.1193 29 28.5 29C29.8807 29 31 30.1193 31 31.5Z" fill="#71C3A8"/>
</svg>
