<svg width="45" height="44" viewBox="0 0 45 44" fill="none" xmlns="http://www.w3.org/2000/svg">
<ellipse cx="22.5" cy="22" rx="22.5" ry="22" fill="#5C7DEE" fill-opacity="0.3"/>
<path d="M20 13C17.2386 13 15 15.2386 15 18C15 20.7614 17.2386 23 20 23C22.7614 23 25 20.7614 25 18C25 15.2386 22.7614 13 20 13ZM17 18C17 16.3431 18.3431 15 20 15C21.6569 15 23 16.3431 23 18C23 19.6569 21.6569 21 20 21C18.3431 21 17 19.6569 17 18Z" fill="#5C7DEE"/>
<path d="M27.9084 18.2183C27.6271 18.0748 27.3158 18.0001 27 18.0001V16.0001C27.6316 16.0001 28.2542 16.1496 28.8169 16.4364C28.8789 16.468 28.9399 16.5012 29 16.5359C29.4854 16.8161 29.9072 17.1957 30.2373 17.6506C30.6083 18.1617 30.8529 18.7535 30.9512 19.3774C31.0496 20.0013 30.9987 20.6396 30.8029 21.2401C30.6071 21.8405 30.2719 22.3861 29.8247 22.8321C29.3775 23.2782 28.8311 23.6119 28.2301 23.8062C27.6953 23.979 27.1308 24.037 26.5735 23.9772C26.5046 23.9698 26.4357 23.9606 26.367 23.9496C25.7438 23.8497 25.1531 23.6038 24.6431 23.2319L24.6421 23.2311L25.821 21.6156C26.0761 21.8017 26.3717 21.9248 26.6835 21.9747C26.9953 22.0247 27.3145 22.0001 27.615 21.903C27.9155 21.8059 28.1887 21.639 28.4123 21.416C28.6359 21.193 28.8035 20.9202 28.9014 20.62C28.9993 20.3198 29.0247 20.0006 28.9756 19.6887C28.9264 19.3768 28.8041 19.0809 28.6186 18.8253C28.4331 18.5697 28.1898 18.3617 27.9084 18.2183Z" fill="#5C7DEE"/>
<path d="M30.9981 31C30.9981 30.475 30.8947 29.9551 30.6938 29.47C30.4928 28.9849 30.1983 28.5442 29.8271 28.1729C29.4558 27.8017 29.0151 27.5072 28.53 27.3062C28.0449 27.1053 27.525 27.0019 27 27.0019V25C27.6821 25 28.3584 25.1163 29 25.3431C29.0996 25.3783 29.1983 25.4162 29.2961 25.4567C30.0241 25.7583 30.6855 26.2002 31.2426 26.7574C31.7998 27.3145 32.2417 27.9759 32.5433 28.7039C32.5838 28.8017 32.6217 28.9004 32.6569 29C32.8837 29.6416 33 30.3179 33 31H30.9981Z" fill="#5C7DEE"/>
<path d="M27 31H25C25 28.2386 22.7614 26 20 26C17.2386 26 15 28.2386 15 31H13C13 27.134 16.134 24 20 24C23.866 24 27 27.134 27 31Z" fill="#5C7DEE"/>
</svg>
